<svg width="376" height="731" viewBox="0 0 376 731" fill="none" xmlns="http://www.w3.org/2000/svg">
<path d="M266.554 639.136C271.218 638.806 274.192 637.958 285.885 641.099C285.885 641.099 271.265 669.472 266.554 671.491C266.554 671.491 258.019 676.131 254.06 678.76V673.51C254.06 669.353 258.931 666.443 258.931 666.443L250.483 671.491C250.483 671.491 250.179 666.743 252.092 664.222C254.005 661.7 257.36 660.587 257.36 660.587L248.874 662C246.259 656.75 257.36 651.196 257.36 651.196L248.874 655.337C248.874 650.008 252.092 645.039 257.36 642.221C257.36 642.221 261.89 639.465 266.554 639.136Z" fill="#4B4B4B" stroke="#4B4B4B"/>
<path d="M348.468 639.15C343.753 638.807 340.747 637.925 328.927 641.193C328.927 641.193 343.706 670.712 348.468 672.813C348.468 672.813 357.096 677.641 361.098 680.375V674.913C361.098 670.589 356.174 667.56 356.174 667.56L364.714 672.813C364.714 672.813 365.021 667.873 363.087 665.25C361.153 662.626 357.762 661.468 357.762 661.468L366.34 662.939C368.984 657.477 357.762 651.697 357.762 651.697L366.34 656.006C366.34 650.462 364.714 646.049 357.762 642.36C357.762 642.36 353.183 639.493 348.468 639.15Z" fill="#4B4B4B" stroke="#4B4B4B"/>
<path d="M342.14 673.832C342.14 684.177 338.207 691.262 332.223 695.804C326.178 700.393 317.884 702.5 309.042 702.5C299.36 702.5 290.878 701.236 284.543 697.081C278.305 692.991 273.894 685.921 272.719 673.689C271.55 661.52 275.138 652.326 281.638 646.156C288.172 639.954 297.822 636.644 309.042 636.644C320.132 636.644 328.342 640.757 333.809 647.361C339.306 654.004 342.14 663.306 342.14 673.832Z" fill="#787878" stroke="#4B4B4B" stroke-width="3"/>
<path d="M315.454 677.346C315.454 682.811 315.655 687.846 307.81 687.846C299.966 687.846 300.167 682.811 300.167 677.346C300.167 671.882 304.478 666.442 307.81 666.442C311.143 666.442 315.454 671.882 315.454 677.346Z" fill="#3A3939"/>
<path d="M268.137 640.818C272.953 640.562 276.024 639.903 288.098 642.343C288.098 642.343 270.327 667.615 265.702 670.447C261.077 673.28 259.323 673.634 255.235 675.676C255.235 675.676 255.634 672.816 256.695 670.447C257.872 667.823 261.077 665.219 261.077 665.219L252.07 668.922C252.07 668.922 253.259 664.563 255.235 662.604C257.286 660.571 258.643 659.554 258.643 659.554L249.879 660.644C249.879 656.722 258.643 650.186 258.643 650.186L249.879 653.236C249.879 649.097 254.549 644.874 258.643 643.215C258.643 643.215 263.32 641.074 268.137 640.818Z" fill="#787878" stroke="#787878"/>
<path d="M266.819 641.473C266.819 641.473 273.181 640.694 282.868 643.047C282.868 643.047 270.529 665.849 266.819 668.581C263.108 671.312 260.022 672.091 256.743 674.061L259.477 668.581L262.992 663.537L254.204 667.11C254.204 665.106 256.743 662.048 256.743 662.048L260.83 657.899L252.447 659.428C252.447 655.645 260.83 649.038 260.83 649.038L251.489 652.22C251.489 648.228 256.193 645.571 259.477 643.971C262.761 642.37 266.819 641.473 266.819 641.473Z" fill="#636161" stroke="#787878"/>
<path d="M346.899 640.684C341.981 640.416 338.846 639.726 326.517 642.279C326.517 642.279 344.662 668.713 349.384 671.675C354.107 674.637 355.898 675.008 360.072 677.144C360.072 677.144 359.665 674.153 358.581 671.675C357.38 668.929 354.107 666.206 354.107 666.206L363.303 670.08C363.303 670.08 362.089 665.52 360.072 663.471C357.978 661.344 356.592 660.281 356.592 660.281L365.54 661.42C365.54 657.319 356.592 650.482 356.592 650.482L365.54 653.673C365.54 649.343 360.772 644.926 356.592 643.19C356.592 643.19 351.816 640.951 346.899 640.684Z" fill="#787878" stroke="#787878"/>
<path d="M348.011 641.332C348.011 641.332 341.404 640.515 331.345 642.984C331.345 642.984 344.158 666.912 348.011 669.778C351.864 672.645 355.069 673.462 358.474 675.529L355.635 669.778L351.985 664.486L361.111 668.235C361.111 666.132 358.474 662.924 358.474 662.924L354.23 658.569L362.936 660.173C362.936 656.204 354.23 649.27 354.23 649.27L363.931 652.61C363.931 648.42 359.046 645.633 355.635 643.953C352.225 642.274 348.011 641.332 348.011 641.332Z" fill="#636161" stroke="#787878"/>
<path d="M286.017 661.137C286.017 661.137 290.034 663.139 292.804 663.212C295.776 663.29 300.155 661.22 300.155 661.22" stroke="#3A3939" stroke-width="3"/>
<path d="M314.983 660.985C314.983 660.985 319 662.987 321.769 663.06C324.742 663.138 329.121 661.069 329.121 661.069" stroke="#3A3939" stroke-width="3"/>
<path d="M307.207 686.836C307.207 690.673 307.207 695.721 298.96 693.5" stroke="#3A3939" stroke-width="3"/>
<path d="M308.212 686.836C308.212 690.673 308.212 695.721 316.459 693.5" stroke="#3A3939" stroke-width="3"/>
<path d="M240.245 655.048L307.009 601.141L371.849 655.048H240.245Z" fill="#B46C32" stroke="#6D401C" stroke-width="3"/>
<path d="M307.006 600.817L344.017 655.236H239.822L307.006 600.817Z" fill="#CE7C39"/>
<path d="M300.368 665.433C300.368 665.433 307.609 661.798 314.851 665.433" stroke="#6C401C" stroke-width="3"/>
<path d="M286.652 666.045C286.679 665.939 286.711 665.836 286.746 665.74C287.066 665.742 287.462 665.743 287.919 665.745C289.225 665.748 291.04 665.748 293.08 665.734C295.031 665.72 296.786 665.72 298.053 665.724C298.511 665.725 298.905 665.726 299.221 665.728C299.279 665.864 299.333 666.01 299.374 666.16C299.536 666.752 299.449 667.073 299.151 667.321C296.633 669.415 294.538 670.404 292.694 670.464C290.928 670.521 289.054 669.731 286.925 667.451C286.559 667.059 286.512 666.6 286.652 666.045ZM287.069 665.077L287.069 665.077L287.069 665.077Z" fill="#00E5FF" fill-opacity="0.1" stroke="#6C401C" stroke-width="3"/>
<path d="M315.617 666.045C315.644 665.939 315.676 665.836 315.712 665.74C316.032 665.742 316.427 665.743 316.885 665.745C318.19 665.748 320.006 665.748 322.046 665.734C323.996 665.72 325.751 665.72 327.019 665.724C327.476 665.725 327.87 665.726 328.187 665.728C328.245 665.864 328.298 666.01 328.339 666.16C328.502 666.752 328.415 667.073 328.116 667.321C325.598 669.415 323.504 670.404 321.66 670.464C319.893 670.521 318.019 669.731 315.89 667.451C315.525 667.059 315.477 666.6 315.617 666.045ZM316.035 665.077L316.034 665.077L316.035 665.077Z" fill="#00E5FF" fill-opacity="0.1" stroke="#6C401C" stroke-width="3"/>
<path d="M117.817 174.814C129.04 205.627 94.4641 212.048 71.7088 216.016C48.0897 220.135 14.4007 211.28 15.0081 190.177C15.6022 169.539 36.4662 166.192 54.2624 160.847C78.6926 153.509 108.258 148.569 117.817 174.814Z" fill="#4E2D6D"/>
<path d="M369.817 337.814C381.04 368.627 346.464 375.048 323.709 379.016C300.09 383.135 266.401 374.28 267.008 353.177C267.602 332.539 288.466 329.192 306.262 323.847C330.693 316.509 360.258 311.569 369.817 337.814Z" fill="#4E2D6D"/>
<path d="M102.817 478.814C114.04 509.627 79.4641 516.048 56.7088 520.016C33.0897 524.135 -0.599337 515.28 0.00809998 494.177C0.602163 473.539 21.4662 470.192 39.2624 464.847C63.6926 457.509 93.2582 452.569 102.817 478.814Z" fill="#4E2D6D"/>
<path d="M52 528C99.4415 650.184 144.418 686.119 260.117 687.339" stroke="#4E2D6D" stroke-width="5" stroke-dasharray="10 10"/>
<path d="M354.549 389.623C353.959 418.032 277.632 519.323 112 503" stroke="#4E2D6D" stroke-width="5" stroke-dasharray="10 10"/>
<path d="M328.555 306.425C330.726 283.447 277.216 192.231 139 184.661" stroke="#4E2D6D" stroke-width="5" stroke-dasharray="10 10"/>
<path d="M297.005 17.7338C276.234 15.7845 147.832 34.5759 69.5318 141.139" stroke="#4E2D6D" stroke-width="5" stroke-dasharray="10 10"/>
<line x1="340.611" y1="3.55025" x2="316.082" y2="33.1905" stroke="#4E2D6D" stroke-width="8"/>
<line y1="-4" x2="38.4739" y2="-4" transform="matrix(0.637562 0.770399 0.770399 -0.637562 318 1)" stroke="#4E2D6D" stroke-width="8"/>
<path d="M289.023 721.02C289.023 721.699 288.863 722.371 288.543 723.035C288.23 723.699 287.789 724.262 287.219 724.723C286.594 725.223 285.863 725.613 285.027 725.895C284.199 726.176 283.199 726.316 282.027 726.316C280.77 726.316 279.637 726.199 278.629 725.965C277.629 725.73 276.609 725.383 275.57 724.922V722.016H275.734C276.617 722.75 277.637 723.316 278.793 723.715C279.949 724.113 281.035 724.312 282.051 724.312C283.488 724.312 284.605 724.043 285.402 723.504C286.207 722.965 286.609 722.246 286.609 721.348C286.609 720.574 286.418 720.004 286.035 719.637C285.66 719.27 285.086 718.984 284.312 718.781C283.727 718.625 283.09 718.496 282.402 718.395C281.723 718.293 281 718.164 280.234 718.008C278.688 717.68 277.539 717.121 276.789 716.332C276.047 715.535 275.676 714.5 275.676 713.227C275.676 711.766 276.293 710.57 277.527 709.641C278.762 708.703 280.328 708.234 282.227 708.234C283.453 708.234 284.578 708.352 285.602 708.586C286.625 708.82 287.531 709.109 288.32 709.453V712.195H288.156C287.492 711.633 286.617 711.168 285.531 710.801C284.453 710.426 283.348 710.238 282.215 710.238C280.973 710.238 279.973 710.496 279.215 711.012C278.465 711.527 278.09 712.191 278.09 713.004C278.09 713.73 278.277 714.301 278.652 714.715C279.027 715.129 279.688 715.445 280.633 715.664C281.133 715.773 281.844 715.906 282.766 716.062C283.688 716.219 284.469 716.379 285.109 716.543C286.406 716.887 287.383 717.406 288.039 718.102C288.695 718.797 289.023 719.77 289.023 721.02ZM299.371 725.883C298.957 725.992 298.504 726.082 298.012 726.152C297.527 726.223 297.094 726.258 296.711 726.258C295.375 726.258 294.359 725.898 293.664 725.18C292.969 724.461 292.621 723.309 292.621 721.723V714.762H291.133V712.91H292.621V709.148H294.824V712.91H299.371V714.762H294.824V720.727C294.824 721.414 294.84 721.953 294.871 722.344C294.902 722.727 295.012 723.086 295.199 723.422C295.371 723.734 295.605 723.965 295.902 724.113C296.207 724.254 296.668 724.324 297.285 724.324C297.645 724.324 298.02 724.273 298.41 724.172C298.801 724.062 299.082 723.973 299.254 723.902H299.371V725.883ZM312.215 726H310.023V724.605C309.828 724.738 309.562 724.926 309.227 725.168C308.898 725.402 308.578 725.59 308.266 725.73C307.898 725.91 307.477 726.059 307 726.176C306.523 726.301 305.965 726.363 305.324 726.363C304.145 726.363 303.145 725.973 302.324 725.191C301.504 724.41 301.094 723.414 301.094 722.203C301.094 721.211 301.305 720.41 301.727 719.801C302.156 719.184 302.766 718.699 303.555 718.348C304.352 717.996 305.309 717.758 306.426 717.633C307.543 717.508 308.742 717.414 310.023 717.352V717.012C310.023 716.512 309.934 716.098 309.754 715.77C309.582 715.441 309.332 715.184 309.004 714.996C308.691 714.816 308.316 714.695 307.879 714.633C307.441 714.57 306.984 714.539 306.508 714.539C305.93 714.539 305.285 714.617 304.574 714.773C303.863 714.922 303.129 715.141 302.371 715.43H302.254V713.191C302.684 713.074 303.305 712.945 304.117 712.805C304.93 712.664 305.73 712.594 306.52 712.594C307.441 712.594 308.242 712.672 308.922 712.828C309.609 712.977 310.203 713.234 310.703 713.602C311.195 713.961 311.57 714.426 311.828 714.996C312.086 715.566 312.215 716.273 312.215 717.117V726ZM310.023 722.777V719.133C309.352 719.172 308.559 719.23 307.645 719.309C306.738 719.387 306.02 719.5 305.488 719.648C304.855 719.828 304.344 720.109 303.953 720.492C303.562 720.867 303.367 721.387 303.367 722.051C303.367 722.801 303.594 723.367 304.047 723.75C304.5 724.125 305.191 724.312 306.121 724.312C306.895 724.312 307.602 724.164 308.242 723.867C308.883 723.562 309.477 723.199 310.023 722.777ZM324.625 715.312H324.508C324.18 715.234 323.859 715.18 323.547 715.148C323.242 715.109 322.879 715.09 322.457 715.09C321.777 715.09 321.121 715.242 320.488 715.547C319.855 715.844 319.246 716.23 318.66 716.707V726H316.457V712.91H318.66V714.844C319.535 714.141 320.305 713.645 320.969 713.355C321.641 713.059 322.324 712.91 323.02 712.91C323.402 712.91 323.68 712.922 323.852 712.945C324.023 712.961 324.281 712.996 324.625 713.051V715.312ZM333.496 725.883C333.082 725.992 332.629 726.082 332.137 726.152C331.652 726.223 331.219 726.258 330.836 726.258C329.5 726.258 328.484 725.898 327.789 725.18C327.094 724.461 326.746 723.309 326.746 721.723V714.762H325.258V712.91H326.746V709.148H328.949V712.91H333.496V714.762H328.949V720.727C328.949 721.414 328.965 721.953 328.996 722.344C329.027 722.727 329.137 723.086 329.324 723.422C329.496 723.734 329.73 723.965 330.027 724.113C330.332 724.254 330.793 724.324 331.41 724.324C331.77 724.324 332.145 724.273 332.535 724.172C332.926 724.062 333.207 723.973 333.379 723.902H333.496V725.883Z" fill="#44285E"/>
</svg>
