<svg width="402" height="874" viewBox="0 0 402 874" fill="none" xmlns="http://www.w3.org/2000/svg">
<path d="M8.5 0L17.5933 15H-0.593266L8.5 0Z" fill="#914CCF"/>
<path d="M29.5 32L38.5933 47H20.4067L29.5 32Z" fill="#914CCF"/>
<path d="M44.5 0L53.5933 15H35.4067L44.5 0Z" fill="#914CCF"/>
<path d="M70.5 83L79.5933 98H61.4067L70.5 83Z" fill="#914CCF"/>
<path d="M105.5 90L114.593 105H96.4067L105.5 90Z" fill="#914CCF"/>
<path d="M115.5 42L124.593 57H106.407L115.5 42Z" fill="#914CCF"/>
<path d="M172.5 73L181.593 88H163.407L172.5 73Z" fill="#914CCF"/>
<path d="M45.5 58L54.5933 73H36.4067L45.5 58Z" fill="#914CCF"/>
<path d="M206.5 20L215.593 35H197.407L206.5 20Z" fill="#914CCF"/>
<path d="M18.5 176L27.5933 191H9.40673L18.5 176Z" fill="#914CCF"/>
<path d="M65.5 120L74.5933 135H56.4067L65.5 120Z" fill="#914CCF"/>
<path d="M169.5 32L178.593 47H160.407L169.5 32Z" fill="#914CCF"/>
<path d="M168.5 2L177.593 17H159.407L168.5 2Z" fill="#914CCF"/>
<path d="M141.5 100L150.593 115H132.407L141.5 100Z" fill="#914CCF"/>
<path d="M55.5 156L64.5933 171H46.4067L55.5 156Z" fill="#914CCF"/>
<path d="M102.5 130L111.593 145H93.4067L102.5 130Z" fill="#914CCF"/>
<path d="M131.5 12L140.593 27H122.407L131.5 12Z" fill="#914CCF"/>
<path d="M29.5 134L38.5933 149H20.4067L29.5 134Z" fill="#914CCF"/>
<path d="M80.5 42L89.5933 57H71.4067L80.5 42Z" fill="#914CCF"/>
<path d="M81.5 12L90.5933 27H72.4067L81.5 12Z" fill="#914CCF"/>
<path d="M29.5 83L38.5933 98H20.4067L29.5 83Z" fill="#914CCF"/>
<path d="M131.5 63L140.593 78H122.407L131.5 63Z" fill="#914CCF"/>
<path d="M206.5 58L215.593 73H197.407L206.5 58Z" fill="#914CCF"/>
<path d="M208.5 708L217.593 723H199.407L208.5 708Z" fill="#914CCF"/>
<path d="M229.5 740L238.593 755H220.407L229.5 740Z" fill="#914CCF"/>
<path d="M244.5 708L253.593 723H235.407L244.5 708Z" fill="#914CCF"/>
<path d="M270.5 791L279.593 806H261.407L270.5 791Z" fill="#914CCF"/>
<path d="M305.5 798L314.593 813H296.407L305.5 798Z" fill="#914CCF"/>
<path d="M315.5 750L324.593 765H306.407L315.5 750Z" fill="#914CCF"/>
<path d="M372.5 781L381.593 796H363.407L372.5 781Z" fill="#914CCF"/>
<path d="M245.5 766L254.593 781H236.407L245.5 766Z" fill="#914CCF"/>
<path d="M406.5 728L415.593 743H397.407L406.5 728Z" fill="#914CCF"/>
<path d="M265.5 828L274.593 843H256.407L265.5 828Z" fill="#914CCF"/>
<path d="M369.5 740L378.593 755H360.407L369.5 740Z" fill="#914CCF"/>
<path d="M368.5 710L377.593 725H359.407L368.5 710Z" fill="#914CCF"/>
<path d="M341.5 808L350.593 823H332.407L341.5 808Z" fill="#914CCF"/>
<path d="M255.5 864L264.593 879H246.407L255.5 864Z" fill="#914CCF"/>
<path d="M302.5 838L311.593 853H293.407L302.5 838Z" fill="#914CCF"/>
<path d="M331.5 720L340.593 735H322.407L331.5 720Z" fill="#914CCF"/>
<path d="M229.5 842L238.593 857H220.407L229.5 842Z" fill="#914CCF"/>
<path d="M280.5 750L289.593 765H271.407L280.5 750Z" fill="#914CCF"/>
<path d="M281.5 720L290.593 735H272.407L281.5 720Z" fill="#914CCF"/>
<path d="M229.5 791L238.593 806H220.407L229.5 791Z" fill="#914CCF"/>
<path d="M331.5 771L340.593 786H322.407L331.5 771Z" fill="#914CCF"/>
<path d="M406.5 766L415.593 781H397.407L406.5 766Z" fill="#914CCF"/>
<path d="M-6.5 723L2.59327 738H-15.5933L-6.5 723Z" fill="#914CCF"/>
<path d="M14.5 755L23.5933 770H5.40673L14.5 755Z" fill="#914CCF"/>
<path d="M29.5 723L38.5933 738H20.4067L29.5 723Z" fill="#914CCF"/>
<path d="M55.5 806L64.5933 821H46.4067L55.5 806Z" fill="#914CCF"/>
<path d="M90.5 813L99.5933 828H81.4067L90.5 813Z" fill="#914CCF"/>
<path d="M100.5 765L109.593 780H91.4067L100.5 765Z" fill="#914CCF"/>
<path d="M157.5 796L166.593 811H148.407L157.5 796Z" fill="#914CCF"/>
<path d="M30.5 781L39.5933 796H21.4067L30.5 781Z" fill="#914CCF"/>
<path d="M191.5 743L200.593 758H182.407L191.5 743Z" fill="#914CCF"/>
<path d="M50.5 843L59.5933 858H41.4067L50.5 843Z" fill="#914CCF"/>
<path d="M154.5 755L163.593 770H145.407L154.5 755Z" fill="#914CCF"/>
<path d="M153.5 725L162.593 740H144.407L153.5 725Z" fill="#914CCF"/>
<path d="M126.5 823L135.593 838H117.407L126.5 823Z" fill="#914CCF"/>
<path d="M87.5 853L96.5933 868H78.4067L87.5 853Z" fill="#914CCF"/>
<path d="M116.5 735L125.593 750H107.407L116.5 735Z" fill="#914CCF"/>
<path d="M14.5 857L23.5933 872H5.40673L14.5 857Z" fill="#914CCF"/>
<path d="M65.5 765L74.5933 780H56.4067L65.5 765Z" fill="#914CCF"/>
<path d="M66.5 735L75.5933 750H57.4067L66.5 735Z" fill="#914CCF"/>
<path d="M14.5 806L23.5933 821H5.40673L14.5 806Z" fill="#914CCF"/>
<path d="M116.5 786L125.593 801H107.407L116.5 786Z" fill="#914CCF"/>
<path d="M349.5 629L358.593 644H340.407L349.5 629Z" fill="#914CCF"/>
<path d="M403.5 619L412.593 634H394.407L403.5 619Z" fill="#914CCF"/>
<path d="M402.5 589L411.593 604H393.407L402.5 589Z" fill="#914CCF"/>
<path d="M365.5 599L374.593 614H356.407L365.5 599Z" fill="#914CCF"/>
<path d="M365.5 650L374.593 665H356.407L365.5 650Z" fill="#914CCF"/>
<path d="M111.5 678L120.593 693H102.407L111.5 678Z" fill="#914CCF"/>
<path d="M88.5 713L97.5933 728H79.4067L88.5 713Z" fill="#914CCF"/>
<path d="M73.5 678L82.5933 693H64.4067L73.5 678Z" fill="#914CCF"/>
<path d="M165.5 668L174.593 683H156.407L165.5 668Z" fill="#914CCF"/>
<path d="M164.5 638L173.593 653H155.407L164.5 638Z" fill="#914CCF"/>
<path d="M127.5 648L136.593 663H118.407L127.5 648Z" fill="#914CCF"/>
<path d="M127.5 699L136.593 714H118.407L127.5 699Z" fill="#914CCF"/>
<path d="M191.5 781L200.593 796H182.407L191.5 781Z" fill="#914CCF"/>
<path d="M191.5 496L200.593 511H182.407L191.5 496Z" fill="#914CCF"/>
<path d="M212.5 528L221.593 543H203.407L212.5 528Z" fill="#914CCF"/>
<path d="M227.5 496L236.593 511H218.407L227.5 496Z" fill="#914CCF"/>
<path d="M253.5 579L262.593 594H244.407L253.5 579Z" fill="#914CCF"/>
<path d="M288.5 586L297.593 601H279.407L288.5 586Z" fill="#914CCF"/>
<path d="M298.5 538L307.593 553H289.407L298.5 538Z" fill="#914CCF"/>
<path d="M355.5 569L364.593 584H346.407L355.5 569Z" fill="#914CCF"/>
<path d="M228.5 554L237.593 569H219.407L228.5 554Z" fill="#914CCF"/>
<path d="M389.5 516L398.593 531H380.407L389.5 516Z" fill="#914CCF"/>
<path d="M201.5 672L210.593 687H192.407L201.5 672Z" fill="#914CCF"/>
<path d="M248.5 616L257.593 631H239.407L248.5 616Z" fill="#914CCF"/>
<path d="M352.5 528L361.593 543H343.407L352.5 528Z" fill="#914CCF"/>
<path d="M351.5 498L360.593 513H342.407L351.5 498Z" fill="#914CCF"/>
<path d="M324.5 596L333.593 611H315.407L324.5 596Z" fill="#914CCF"/>
<path d="M238.5 652L247.593 667H229.407L238.5 652Z" fill="#914CCF"/>
<path d="M51.5 705L60.5933 720H42.4067L51.5 705Z" fill="#914CCF"/>
<path d="M285.5 626L294.593 641H276.407L285.5 626Z" fill="#914CCF"/>
<path d="M270.5 673L279.593 688H261.407L270.5 673Z" fill="#914CCF"/>
<path d="M340.5 679L349.593 694H331.407L340.5 679Z" fill="#914CCF"/>
<path d="M314.5 641L323.593 656H305.407L314.5 641Z" fill="#914CCF"/>
<path d="M302.5 683L311.593 698H293.407L302.5 683Z" fill="#914CCF"/>
<path d="M314.5 508L323.593 523H305.407L314.5 508Z" fill="#914CCF"/>
<path d="M212.5 630L221.593 645H203.407L212.5 630Z" fill="#914CCF"/>
<path d="M263.5 538L272.593 553H254.407L263.5 538Z" fill="#914CCF"/>
<path d="M264.5 508L273.593 523H255.407L264.5 508Z" fill="#914CCF"/>
<path d="M212.5 579L221.593 594H203.407L212.5 579Z" fill="#914CCF"/>
<path d="M314.5 559L323.593 574H305.407L314.5 559Z" fill="#914CCF"/>
<path d="M389.5 554L398.593 569H380.407L389.5 554Z" fill="#914CCF"/>
<path d="M-8.5 517L0.593266 532H-17.5933L-8.5 517Z" fill="#914CCF"/>
<path d="M12.5 549L21.5933 564H3.40673L12.5 549Z" fill="#914CCF"/>
<path d="M27.5 517L36.5933 532H18.4067L27.5 517Z" fill="#914CCF"/>
<path d="M53.5 600L62.5933 615H44.4067L53.5 600Z" fill="#914CCF"/>
<path d="M88.5 607L97.5933 622H79.4067L88.5 607Z" fill="#914CCF"/>
<path d="M98.5 559L107.593 574H89.4067L98.5 559Z" fill="#914CCF"/>
<path d="M155.5 590L164.593 605H146.407L155.5 590Z" fill="#914CCF"/>
<path d="M28.5 575L37.5933 590H19.4067L28.5 575Z" fill="#914CCF"/>
<path d="M189.5 537L198.593 552H180.407L189.5 537Z" fill="#914CCF"/>
<path d="M1.5 693L10.5933 708H-7.59327L1.5 693Z" fill="#914CCF"/>
<path d="M48.5 637L57.5933 652H39.4067L48.5 637Z" fill="#914CCF"/>
<path d="M152.5 549L161.593 564H143.407L152.5 549Z" fill="#914CCF"/>
<path d="M151.5 519L160.593 534H142.407L151.5 519Z" fill="#914CCF"/>
<path d="M124.5 617L133.593 632H115.407L124.5 617Z" fill="#914CCF"/>
<path d="M38.5 673L47.5933 688H29.4067L38.5 673Z" fill="#914CCF"/>
<path d="M85.5 647L94.5933 662H76.4067L85.5 647Z" fill="#914CCF"/>
<path d="M114.5 529L123.593 544H105.407L114.5 529Z" fill="#914CCF"/>
<path d="M12.5 651L21.5933 666H3.40673L12.5 651Z" fill="#914CCF"/>
<path d="M63.5 559L72.5933 574H54.4067L63.5 559Z" fill="#914CCF"/>
<path d="M64.5 529L73.5933 544H55.4067L64.5 529Z" fill="#914CCF"/>
<path d="M12.5 600L21.5933 615H3.40673L12.5 600Z" fill="#914CCF"/>
<path d="M114.5 580L123.593 595H105.407L114.5 580Z" fill="#914CCF"/>
<path d="M189.5 575L198.593 590H180.407L189.5 575Z" fill="#914CCF"/>
<path d="M19.5 413L28.5933 428H10.4067L19.5 413Z" fill="#914CCF"/>
<path d="M29.5 365L38.5933 380H20.4067L29.5 365Z" fill="#914CCF"/>
<path d="M86.5 396L95.5933 411H77.4067L86.5 396Z" fill="#914CCF"/>
<path d="M245.5 460L254.593 475H236.407L245.5 460Z" fill="#914CCF"/>
<path d="M43.5 489L52.5933 504H34.4067L43.5 489Z" fill="#914CCF"/>
<path d="M50.5 463L59.5933 478H41.4067L50.5 463Z" fill="#914CCF"/>
<path d="M76.5 494L85.5933 509H67.4067L76.5 494Z" fill="#914CCF"/>
<path d="M127.5 413L136.593 428H118.407L127.5 413Z" fill="#914CCF"/>
<path d="M113.5 473L122.593 488H104.407L113.5 473Z" fill="#914CCF"/>
<path d="M86.5 449L95.5933 464H77.4067L86.5 449Z" fill="#914CCF"/>
<path d="M120.5 343L129.593 358H111.407L120.5 343Z" fill="#914CCF"/>
<path d="M83.5 355L92.5933 370H74.4067L83.5 355Z" fill="#914CCF"/>
<path d="M82.5 325L91.5933 340H73.4067L82.5 325Z" fill="#914CCF"/>
<path d="M55.5 423L64.5933 438H46.4067L55.5 423Z" fill="#914CCF"/>
<path d="M16.5 453L25.5933 468H7.40673L16.5 453Z" fill="#914CCF"/>
<path d="M45.5 335L54.5933 350H36.4067L45.5 335Z" fill="#914CCF"/>
<path d="M0.5 365L9.59327 380H-8.59327L0.5 365Z" fill="#914CCF"/>
<path d="M5.5 335L14.5933 350H-3.59327L5.5 335Z" fill="#914CCF"/>
<path d="M45.5 386L54.5933 401H36.4067L45.5 386Z" fill="#914CCF"/>
<path d="M120.5 381L129.593 396H111.407L120.5 381Z" fill="#914CCF"/>
<path d="M131.5 303L140.593 318H122.407L131.5 303Z" fill="#914CCF"/>
<path d="M152.5 335L161.593 350H143.407L152.5 335Z" fill="#914CCF"/>
<path d="M167.5 303L176.593 318H158.407L167.5 303Z" fill="#914CCF"/>
<path d="M193.5 386L202.593 401H184.407L193.5 386Z" fill="#914CCF"/>
<path d="M228.5 393L237.593 408H219.407L228.5 393Z" fill="#914CCF"/>
<path d="M238.5 345L247.593 360H229.407L238.5 345Z" fill="#914CCF"/>
<path d="M295.5 376L304.593 391H286.407L295.5 376Z" fill="#914CCF"/>
<path d="M168.5 361L177.593 376H159.407L168.5 361Z" fill="#914CCF"/>
<path d="M329.5 323L338.593 338H320.407L329.5 323Z" fill="#914CCF"/>
<path d="M141.5 479L150.593 494H132.407L141.5 479Z" fill="#914CCF"/>
<path d="M188.5 423L197.593 438H179.407L188.5 423Z" fill="#914CCF"/>
<path d="M292.5 335L301.593 350H283.407L292.5 335Z" fill="#914CCF"/>
<path d="M291.5 305L300.593 320H282.407L291.5 305Z" fill="#914CCF"/>
<path d="M264.5 403L273.593 418H255.407L264.5 403Z" fill="#914CCF"/>
<path d="M178.5 459L187.593 474H169.407L178.5 459Z" fill="#914CCF"/>
<path d="M225.5 433L234.593 448H216.407L225.5 433Z" fill="#914CCF"/>
<path d="M254.5 315L263.593 330H245.407L254.5 315Z" fill="#914CCF"/>
<path d="M152.5 437L161.593 452H143.407L152.5 437Z" fill="#914CCF"/>
<path d="M203.5 345L212.593 360H194.407L203.5 345Z" fill="#914CCF"/>
<path d="M204.5 315L213.593 330H195.407L204.5 315Z" fill="#914CCF"/>
<path d="M152.5 386L161.593 401H143.407L152.5 386Z" fill="#914CCF"/>
<path d="M254.5 366L263.593 381H245.407L254.5 366Z" fill="#914CCF"/>
<path d="M329.5 361L338.593 376H320.407L329.5 361Z" fill="#914CCF"/>
<path d="M279.5 476L288.593 491H270.407L279.5 476Z" fill="#914CCF"/>
<path d="M289.5 428L298.593 443H280.407L289.5 428Z" fill="#914CCF"/>
<path d="M346.5 459L355.593 474H337.407L346.5 459Z" fill="#914CCF"/>
<path d="M380.5 406L389.593 421H371.407L380.5 406Z" fill="#914CCF"/>
<path d="M343.5 418L352.593 433H334.407L343.5 418Z" fill="#914CCF"/>
<path d="M342.5 388L351.593 403H333.407L342.5 388Z" fill="#914CCF"/>
<path d="M315.5 486L324.593 501H306.407L315.5 486Z" fill="#914CCF"/>
<path d="M305.5 398L314.593 413H296.407L305.5 398Z" fill="#914CCF"/>
<path d="M305.5 449L314.593 464H296.407L305.5 449Z" fill="#914CCF"/>
<path d="M380.5 444L389.593 459H371.407L380.5 444Z" fill="#914CCF"/>
<path d="M386.5 862L395.593 877H377.407L386.5 862Z" fill="#914CCF"/>
<path d="M382.5 824L391.593 839H373.407L382.5 824Z" fill="#914CCF"/>
<path d="M344.5 854L353.593 869H335.407L344.5 854Z" fill="#914CCF"/>
<path d="M132.5 860L141.593 875H123.407L132.5 860Z" fill="#914CCF"/>
<path d="M195.5 813L204.593 828H186.407L195.5 813Z" fill="#914CCF"/>
<path d="M159.5 834L168.593 849H150.407L159.5 834Z" fill="#914CCF"/>
<path d="M380.5 444L389.593 459H371.407L380.5 444Z" fill="#914CCF"/>
<path d="M193.5 852L202.593 867H184.407L193.5 852Z" fill="#914CCF"/>
<path d="M374.5 365L383.593 380H365.407L374.5 365Z" fill="#914CCF"/>
<path d="M397.5 351L406.593 366H388.407L397.5 351Z" fill="#914CCF"/>
<path d="M395.5 319L404.593 334H386.407L395.5 319Z" fill="#914CCF"/>
<path d="M365.5 336L374.593 351H356.407L365.5 336Z" fill="#914CCF"/>
<path d="M382.5 476L391.593 491H373.407L382.5 476Z" fill="#914CCF"/>
<path d="M227.5 0L236.593 15H218.407L227.5 0Z" fill="#914CCF"/>
<path d="M248.5 32L257.593 47H239.407L248.5 32Z" fill="#914CCF"/>
<path d="M263.5 0L272.593 15H254.407L263.5 0Z" fill="#914CCF"/>
<path d="M289.5 83L298.593 98H280.407L289.5 83Z" fill="#914CCF"/>
<path d="M324.5 90L333.593 105H315.407L324.5 90Z" fill="#914CCF"/>
<path d="M334.5 42L343.593 57H325.407L334.5 42Z" fill="#914CCF"/>
<path d="M391.5 73L400.593 88H382.407L391.5 73Z" fill="#914CCF"/>
<path d="M264.5 58L273.593 73H255.407L264.5 58Z" fill="#914CCF"/>
<path d="M216.5 136L225.593 151H207.407L216.5 136Z" fill="#914CCF"/>
<path d="M191.5 267L200.593 282H182.407L191.5 267Z" fill="#914CCF"/>
<path d="M326.5 287L335.593 302H317.407L326.5 287Z" fill="#914CCF"/>
<path d="M349.5 246L358.593 261H340.407L349.5 246Z" fill="#914CCF"/>
<path d="M221.5 209L230.593 224H212.407L221.5 209Z" fill="#914CCF"/>
<path d="M316.5 253L325.593 268H307.407L316.5 253Z" fill="#914CCF"/>
<path d="M292.5 272L301.593 287H283.407L292.5 272Z" fill="#914CCF"/>
<path d="M301.5 227L310.593 242H292.407L301.5 227Z" fill="#914CCF"/>
<path d="M256.5 281L265.593 296H247.407L256.5 281Z" fill="#914CCF"/>
<path d="M270.5 249L279.593 264H261.407L270.5 249Z" fill="#914CCF"/>
<path d="M265.5 215L274.593 230H256.407L265.5 215Z" fill="#914CCF"/>
<path d="M236.5 242L245.593 257H227.407L236.5 242Z" fill="#914CCF"/>
<path d="M226.5 287L235.593 302H217.407L226.5 287Z" fill="#914CCF"/>
<path d="M338.5 209L347.593 224H329.407L338.5 209Z" fill="#914CCF"/>
<path d="M302.5 196L311.593 211H293.407L302.5 196Z" fill="#914CCF"/>
<path d="M348.5 169L357.593 184H339.407L348.5 169Z" fill="#914CCF"/>
<path d="M265.5 189L274.593 204H256.407L265.5 189Z" fill="#914CCF"/>
<path d="M313.5 154L322.593 169H304.407L313.5 154Z" fill="#914CCF"/>
<path d="M219.5 174L228.593 189H210.407L219.5 174Z" fill="#914CCF"/>
<path d="M141.5 136L150.593 151H132.407L141.5 136Z" fill="#914CCF"/>
<path d="M183.5 146L192.593 161H174.407L183.5 146Z" fill="#914CCF"/>
<path d="M13.5 289L22.5933 304H4.40673L13.5 289Z" fill="#914CCF"/>
<path d="M14.5 249L23.5933 264H5.40673L14.5 249Z" fill="#914CCF"/>
<path d="M18.5 212L27.5933 227H9.40673L18.5 212Z" fill="#914CCF"/>
<path d="M178.5 111L187.593 126H169.407L178.5 111Z" fill="#914CCF"/>
<path d="M211.5 93L220.593 108H202.407L211.5 93Z" fill="#914CCF"/>
<path d="M284.5 120L293.593 135H275.407L284.5 120Z" fill="#914CCF"/>
<path d="M388.5 32L397.593 47H379.407L388.5 32Z" fill="#914CCF"/>
<path d="M387.5 2L396.593 17H378.407L387.5 2Z" fill="#914CCF"/>
<path d="M360.5 100L369.593 115H351.407L360.5 100Z" fill="#914CCF"/>
<path d="M274.5 156L283.593 171H265.407L274.5 156Z" fill="#914CCF"/>
<path d="M321.5 130L330.593 145H312.407L321.5 130Z" fill="#914CCF"/>
<path d="M350.5 12L359.593 27H341.407L350.5 12Z" fill="#914CCF"/>
<path d="M248.5 134L257.593 149H239.407L248.5 134Z" fill="#914CCF"/>
<path d="M299.5 42L308.593 57H290.407L299.5 42Z" fill="#914CCF"/>
<path d="M300.5 12L309.593 27H291.407L300.5 12Z" fill="#914CCF"/>
<path d="M248.5 83L257.593 98H239.407L248.5 83Z" fill="#914CCF"/>
<path d="M350.5 63L359.593 78H341.407L350.5 63Z" fill="#914CCF"/>
<path d="M49.5 252L58.5933 267H40.4067L49.5 252Z" fill="#914CCF"/>
<path d="M84.5 259L93.5933 274H75.4067L84.5 259Z" fill="#914CCF"/>
<path d="M94.5 211L103.593 226H85.4067L94.5 211Z" fill="#914CCF"/>
<path d="M151.5 242L160.593 257H142.407L151.5 242Z" fill="#914CCF"/>
<path d="M185.5 189L194.593 204H176.407L185.5 189Z" fill="#914CCF"/>
<path d="M44.5 289L53.5933 304H35.4067L44.5 289Z" fill="#914CCF"/>
<path d="M148.5 201L157.593 216H139.407L148.5 201Z" fill="#914CCF"/>
<path d="M147.5 171L156.593 186H138.407L147.5 171Z" fill="#914CCF"/>
<path d="M120.5 269L129.593 284H111.407L120.5 269Z" fill="#914CCF"/>
<path d="M81.5 299L90.5933 314H72.4067L81.5 299Z" fill="#914CCF"/>
<path d="M110.5 181L119.593 196H101.407L110.5 181Z" fill="#914CCF"/>
<path d="M59.5 211L68.5933 226H50.4067L59.5 211Z" fill="#914CCF"/>
<path d="M60.5 181L69.5933 196H51.4067L60.5 181Z" fill="#914CCF"/>
<path d="M110.5 232L119.593 247H101.407L110.5 232Z" fill="#914CCF"/>
<path d="M185.5 227L194.593 242H176.407L185.5 227Z" fill="#914CCF"/>
<path d="M359.5 127L368.593 142H350.407L359.5 127Z" fill="#914CCF"/>
<path d="M380.5 159L389.593 174H371.407L380.5 159Z" fill="#914CCF"/>
<path d="M395.5 127L404.593 142H386.407L395.5 127Z" fill="#914CCF"/>
<path d="M396.5 185L405.593 200H387.407L396.5 185Z" fill="#914CCF"/>
<path d="M369.5 303L378.593 318H360.407L369.5 303Z" fill="#914CCF"/>
<path d="M406.5 283L415.593 298H397.407L406.5 283Z" fill="#914CCF"/>
<path d="M380.5 261L389.593 276H371.407L380.5 261Z" fill="#914CCF"/>
<path d="M380.5 210L389.593 225H371.407L380.5 210Z" fill="#914CCF"/>
</svg>
