<svg width="402" height="874" viewBox="0 0 402 874" fill="none" xmlns="http://www.w3.org/2000/svg">
<path d="M-1.531 108.024C-1.531 108.024 33.5241 99.807 49 84.5C66.9946 66.7019 55.9079 42.6961 73.5 24.5001C93.0474 4.28155 140.469 -1.97636 140.469 -1.97636" stroke="#415BDB" stroke-width="5"/>
<path d="M-10.5 151C-10.5 151 37.2144 153.904 62 139.5C101.43 116.586 83.2046 63.4899 117.5 40C154 15.0001 220 -6.99999 220 -6.99999" stroke="#415BDB" stroke-width="5"/>
<path d="M-17 187.5C-17 187.5 30.0433 208.368 63 187.5C115.429 154.302 116.5 42.5 187.5 42.5C247.952 42.5 299.682 -4.87198 299.682 -4.87198" stroke="#415BDB" stroke-width="5"/>
<path d="M-10 241.814C-10 241.814 48.7019 211.862 95.015 221C200.5 241.814 165.5 59.4959 253.689 59.4959C306.268 59.4959 365.4 -2.59314 365.4 -2.59314" stroke="#415BDB" stroke-width="5"/>
<path d="M-2.99999 297.849C-2.99999 297.849 47.1058 245.432 86.5 283.5C162.396 356.841 191.5 119 261.5 99.5C333.749 79.3736 426.497 5.50118 426.497 5.50118" stroke="#415BDB" stroke-width="5"/>
<path d="M-13.9999 373.415C-13.9999 373.415 28 292.5 95.5001 349.5C190.949 430.102 266.859 124.594 326.5 109.5C407.5 89 459 62.5002 459 62.5002" stroke="#415BDB" stroke-width="5"/>
<path d="M0 441.415C0 441.415 59.4797 487.141 98 441.415C167.5 358.915 304.5 349 292.5 218.5C284.419 130.62 465.184 117.442 465.184 117.442" stroke="#415BDB" stroke-width="5"/>
<path d="M-9.20219 611.821C-9.20219 611.821 143.246 471.295 192.746 500.295C263.222 541.584 279.118 284.956 380.5 269C425.625 261.898 466.246 308.795 466.246 308.795" stroke="#415BDB" stroke-width="5"/>
<path d="M-3.00001 678.039C-3.00001 678.039 57.5 531.5 138.5 612.5C219.5 693.5 283.181 411.751 367.5 367.5C452.584 322.848 508.419 338.894 508.419 338.894" stroke="#415BDB" stroke-width="5"/>
<path d="M-10 751C-10 751 67.7098 642.178 115 690C248.5 825 296.938 403.379 349.999 456.439C403.059 509.5 449.5 415.5 449.5 415.5" stroke="#415BDB" stroke-width="5"/>
<path d="M62 898.496C62 898.496 276.263 872.91 281 811C293.679 645.307 423.863 598.661 534.324 622.157C612.425 638.769 596.237 635.352 596.237 635.352" stroke="#415BDB" stroke-width="5"/>
<path d="M75.5599 899.919C75.5599 899.919 194.433 914.252 252.321 881.215C492.569 744.102 258.84 777.672 412.452 662.935C445.808 638.02 552.523 599.309 552.523 599.309" stroke="#415BDB" stroke-width="5"/>
<path d="M218 978.387C218 978.387 298.643 1003.26 336.252 998.192C406.718 988.705 340.322 862.083 401.808 839.966C422.421 832.551 462.788 833.164 462.788 833.164" stroke="#415BDB" stroke-width="5"/>
<path d="M-8.00002 813.5C-8.00002 813.5 60.5 709 144 762C249.194 828.77 256.398 561.591 364.5 498.164C400.741 476.9 458.5 527 458.5 527" stroke="#415BDB" stroke-width="5"/>
<path d="M3.03323 877.423C3.03323 877.423 82.6583 750.869 122.5 815C203 944.578 291.647 661 352 547C379 496 484.841 556.723 484.841 556.723" stroke="#415BDB" stroke-width="5"/>
<path d="M-3 525.415C-3 525.415 47.9797 558.226 86.5 512.5C156 430 309.5 361 319 256.5C326.99 168.611 462.184 201.442 462.184 201.442" stroke="#415BDB" stroke-width="5"/>
<path d="M-34.3842 72.8447C-34.3842 72.8447 1.44049 69.2439 18.771 56.0735C38.9219 40.7595 31.0424 15.5185 50.8458 -0.24216C72.8504 -17.7547 120.683 -17.8093 120.683 -17.8093" stroke="#415BDB" stroke-width="5"/>
</svg>
