<svg width="402" height="874" viewBox="0 0 402 874" fill="none" xmlns="http://www.w3.org/2000/svg">
<line y1="-5" x2="48.2246" y2="-5" transform="matrix(0.683506 -0.729945 0.70222 0.71196 397 123.201)" stroke="#FAF6F6" stroke-width="10"/>
<line y1="-5" x2="48.2246" y2="-5" transform="matrix(0.683506 -0.729945 0.70222 0.71196 358 165.201)" stroke="#FAF6F6" stroke-width="10"/>
<line y1="-5" x2="48.2246" y2="-5" transform="matrix(0.683506 -0.729945 0.70222 0.71196 315 210.201)" stroke="#FAF6F6" stroke-width="10"/>
<line y1="-5" x2="48.2246" y2="-5" transform="matrix(0.683506 -0.729945 0.70222 0.71196 275 252.201)" stroke="#FAF6F6" stroke-width="10"/>
<line y1="-5" x2="48.2246" y2="-5" transform="matrix(0.683506 -0.729945 0.70222 0.71196 234 297.201)" stroke="#FAF6F6" stroke-width="10"/>
<line y1="-5" x2="48.2246" y2="-5" transform="matrix(0.683506 -0.729945 0.70222 0.71196 193 341.201)" stroke="#FAF6F6" stroke-width="10"/>
<line y1="-5" x2="48.2246" y2="-5" transform="matrix(0.683506 -0.729945 0.70222 0.71196 154 383.201)" stroke="#FAF6F6" stroke-width="10"/>
<line y1="-5" x2="48.2246" y2="-5" transform="matrix(0.683506 -0.729945 0.70222 0.71196 393 154.201)" stroke="#FAF6F6" stroke-width="10"/>
<line y1="-5" x2="48.2246" y2="-5" transform="matrix(0.683506 -0.729945 0.70222 0.71196 354 196.201)" stroke="#FAF6F6" stroke-width="10"/>
<line y1="-5" x2="48.2246" y2="-5" transform="matrix(0.683506 -0.729945 0.70222 0.71196 311 241.201)" stroke="#FAF6F6" stroke-width="10"/>
<line y1="-5" x2="48.2246" y2="-5" transform="matrix(0.683506 -0.729945 0.70222 0.71196 271 283.201)" stroke="#FAF6F6" stroke-width="10"/>
<line y1="-5" x2="48.2246" y2="-5" transform="matrix(0.683506 -0.729945 0.70222 0.71196 230 328.201)" stroke="#FAF6F6" stroke-width="10"/>
<line y1="-5" x2="48.2246" y2="-5" transform="matrix(0.683506 -0.729945 0.70222 0.71196 189 372.201)" stroke="#FAF6F6" stroke-width="10"/>
<line y1="-5" x2="48.2246" y2="-5" transform="matrix(0.683506 -0.729945 0.70222 0.71196 150 414.201)" stroke="#FAF6F6" stroke-width="10"/>
<line y1="-5" x2="48.2246" y2="-5" transform="matrix(0.683506 -0.729945 0.70222 0.71196 387 187.201)" stroke="#FAF6F6" stroke-width="10"/>
<line y1="-5" x2="48.2246" y2="-5" transform="matrix(0.683506 -0.729945 0.70222 0.71196 348 229.201)" stroke="#FAF6F6" stroke-width="10"/>
<line y1="-5" x2="48.2246" y2="-5" transform="matrix(0.683506 -0.729945 0.70222 0.71196 305 274.201)" stroke="#FAF6F6" stroke-width="10"/>
<line y1="-5" x2="48.2246" y2="-5" transform="matrix(0.683506 -0.729945 0.70222 0.71196 265 316.201)" stroke="#FAF6F6" stroke-width="10"/>
<line y1="-5" x2="48.2246" y2="-5" transform="matrix(0.683506 -0.729945 0.70222 0.71196 224 361.201)" stroke="#FAF6F6" stroke-width="10"/>
<line y1="-5" x2="48.2246" y2="-5" transform="matrix(0.683506 -0.729945 0.70222 0.71196 183 405.201)" stroke="#FAF6F6" stroke-width="10"/>
<line y1="-5" x2="48.2246" y2="-5" transform="matrix(0.683506 -0.729945 0.70222 0.71196 144 447.201)" stroke="#FAF6F6" stroke-width="10"/>
<line y1="-5" x2="48.2246" y2="-5" transform="matrix(0.683506 -0.729945 0.70222 0.71196 107 487.201)" stroke="#FAF6F6" stroke-width="10"/>
<line y1="-5" x2="48.2246" y2="-5" transform="matrix(0.683506 -0.729945 0.70222 0.71196 113 454.201)" stroke="#FAF6F6" stroke-width="10"/>
<line y1="-5" x2="48.2246" y2="-5" transform="matrix(0.683506 -0.729945 0.70222 0.71196 117 423.201)" stroke="#FAF6F6" stroke-width="10"/>
<line y1="-5" x2="48.2246" y2="-5" transform="matrix(0.683506 -0.729945 0.70222 0.71196 79 466.201)" stroke="#FAF6F6" stroke-width="10"/>
<line y1="-5" x2="48.2246" y2="-5" transform="matrix(0.683506 -0.729945 0.70222 0.71196 38 505.201)" stroke="#FAF6F6" stroke-width="10"/>
<line y1="-5" x2="48.2246" y2="-5" transform="matrix(0.683506 -0.729945 0.70222 0.71196 -3 552.201)" stroke="#FAF6F6" stroke-width="10"/>
<line y1="-5" x2="48.2246" y2="-5" transform="matrix(0.683506 -0.729945 0.70222 0.71196 34 536.201)" stroke="#FAF6F6" stroke-width="10"/>
<line y1="-5" x2="48.2246" y2="-5" transform="matrix(0.683506 -0.729945 0.70222 0.71196 74 493.201)" stroke="#FAF6F6" stroke-width="10"/>
<line y1="-5" x2="48.2246" y2="-5" transform="matrix(0.683506 -0.729945 0.70222 0.71196 67 528.201)" stroke="#FAF6F6" stroke-width="10"/>
<line y1="-5" x2="48.2246" y2="-5" transform="matrix(0.683506 -0.729945 0.70222 0.71196 -7 583.201)" stroke="#FAF6F6" stroke-width="10"/>
<line y1="-5" x2="48.2246" y2="-5" transform="matrix(0.683506 -0.729945 0.70222 0.71196 28 569.201)" stroke="#FAF6F6" stroke-width="10"/>
<line y1="-5" x2="48.2246" y2="-5" transform="matrix(0.683506 -0.729945 0.70222 0.71196 -13 616.201)" stroke="#FAF6F6" stroke-width="10"/>
<line y1="-5" x2="48.2246" y2="-5" transform="matrix(0.683506 -0.729945 0.70222 0.71196 380 224.201)" stroke="#FAF6F6" stroke-width="10"/>
<line y1="-5" x2="48.2246" y2="-5" transform="matrix(0.683506 -0.729945 0.70222 0.71196 339 271.201)" stroke="#FAF6F6" stroke-width="10"/>
<line y1="-5" x2="48.2246" y2="-5" transform="matrix(0.683506 -0.729945 0.70222 0.71196 299 312.201)" stroke="#FAF6F6" stroke-width="10"/>
<line y1="-5" x2="48.2246" y2="-5" transform="matrix(0.683506 -0.729945 0.70222 0.71196 260 354.201)" stroke="#FAF6F6" stroke-width="10"/>
<line y1="-5" x2="48.2246" y2="-5" transform="matrix(0.683506 -0.729945 0.70222 0.71196 217 399.201)" stroke="#FAF6F6" stroke-width="10"/>
<line y1="-5" x2="48.2246" y2="-5" transform="matrix(0.683506 -0.729945 0.70222 0.71196 177 441.201)" stroke="#FAF6F6" stroke-width="10"/>
<line y1="-5" x2="48.2246" y2="-5" transform="matrix(0.683506 -0.729945 0.70222 0.71196 136 486.201)" stroke="#FAF6F6" stroke-width="10"/>
<line y1="-5" x2="48.2246" y2="-5" transform="matrix(0.683506 -0.729945 0.70222 0.71196 95 530.201)" stroke="#FAF6F6" stroke-width="10"/>
<line y1="-5" x2="48.2246" y2="-5" transform="matrix(0.683506 -0.729945 0.70222 0.71196 56 572.201)" stroke="#FAF6F6" stroke-width="10"/>
<line y1="-5" x2="48.2246" y2="-5" transform="matrix(0.683506 -0.729945 0.70222 0.71196 376 255.201)" stroke="#FAF6F6" stroke-width="10"/>
<line y1="-5" x2="48.2246" y2="-5" transform="matrix(0.683506 -0.729945 0.70222 0.71196 335 302.201)" stroke="#FAF6F6" stroke-width="10"/>
<line y1="-5" x2="48.2246" y2="-5" transform="matrix(0.683506 -0.729945 0.70222 0.71196 295 343.201)" stroke="#FAF6F6" stroke-width="10"/>
<line y1="-5" x2="48.2246" y2="-5" transform="matrix(0.683506 -0.729945 0.70222 0.71196 256 385.201)" stroke="#FAF6F6" stroke-width="10"/>
<line y1="-5" x2="48.2246" y2="-5" transform="matrix(0.683506 -0.729945 0.70222 0.71196 213 430.201)" stroke="#FAF6F6" stroke-width="10"/>
<line y1="-5" x2="48.2246" y2="-5" transform="matrix(0.683506 -0.729945 0.70222 0.71196 173 472.201)" stroke="#FAF6F6" stroke-width="10"/>
<line y1="-5" x2="48.2246" y2="-5" transform="matrix(0.683506 -0.729945 0.70222 0.71196 132 517.201)" stroke="#FAF6F6" stroke-width="10"/>
<line y1="-5" x2="48.2246" y2="-5" transform="matrix(0.683506 -0.729945 0.70222 0.71196 91 561.201)" stroke="#FAF6F6" stroke-width="10"/>
<line y1="-5" x2="48.2246" y2="-5" transform="matrix(0.683506 -0.729945 0.70222 0.71196 52 603.201)" stroke="#FAF6F6" stroke-width="10"/>
<line y1="-5" x2="48.2246" y2="-5" transform="matrix(0.683506 -0.729945 0.70222 0.71196 370 288.201)" stroke="#FAF6F6" stroke-width="10"/>
<line y1="-5" x2="48.2246" y2="-5" transform="matrix(0.683506 -0.729945 0.70222 0.71196 329 335.201)" stroke="#FAF6F6" stroke-width="10"/>
<line y1="-5" x2="48.2246" y2="-5" transform="matrix(0.683506 -0.729945 0.70222 0.71196 289 376.201)" stroke="#FAF6F6" stroke-width="10"/>
<line y1="-5" x2="48.2246" y2="-5" transform="matrix(0.683506 -0.729945 0.70222 0.71196 250 418.201)" stroke="#FAF6F6" stroke-width="10"/>
<line y1="-5" x2="48.2246" y2="-5" transform="matrix(0.683506 -0.729945 0.70222 0.71196 207 463.201)" stroke="#FAF6F6" stroke-width="10"/>
<line y1="-5" x2="48.2246" y2="-5" transform="matrix(0.683506 -0.729945 0.70222 0.71196 167 505.201)" stroke="#FAF6F6" stroke-width="10"/>
<line y1="-5" x2="48.2246" y2="-5" transform="matrix(0.683506 -0.729945 0.70222 0.71196 126 550.201)" stroke="#FAF6F6" stroke-width="10"/>
<line y1="-5" x2="48.2246" y2="-5" transform="matrix(0.683506 -0.729945 0.70222 0.71196 85 594.201)" stroke="#FAF6F6" stroke-width="10"/>
<line y1="-5" x2="48.2246" y2="-5" transform="matrix(0.683506 -0.729945 0.70222 0.71196 46 636.201)" stroke="#FAF6F6" stroke-width="10"/>
<line y1="-5" x2="48.2246" y2="-5" transform="matrix(0.683506 -0.729945 0.70222 0.71196 9 676.201)" stroke="#FAF6F6" stroke-width="10"/>
<line y1="-5" x2="48.2246" y2="-5" transform="matrix(0.683506 -0.729945 0.70222 0.71196 15 643.201)" stroke="#FAF6F6" stroke-width="10"/>
<line y1="-5" x2="48.2246" y2="-5" transform="matrix(0.683506 -0.729945 0.70222 0.71196 19 612.201)" stroke="#FAF6F6" stroke-width="10"/>
<line y1="-5" x2="48.2246" y2="-5" transform="matrix(0.683506 -0.729945 0.70222 0.71196 -19 655.201)" stroke="#FAF6F6" stroke-width="10"/>
<line y1="-5" x2="48.2246" y2="-5" transform="matrix(0.683506 -0.729945 0.70222 0.71196 356 329.201)" stroke="#FAF6F6" stroke-width="10"/>
<line y1="-5" x2="48.2246" y2="-5" transform="matrix(0.683506 -0.729945 0.70222 0.71196 315 376.201)" stroke="#FAF6F6" stroke-width="10"/>
<line y1="-5" x2="48.2246" y2="-5" transform="matrix(0.683506 -0.729945 0.70222 0.71196 275 417.201)" stroke="#FAF6F6" stroke-width="10"/>
<line y1="-5" x2="48.2246" y2="-5" transform="matrix(0.683506 -0.729945 0.70222 0.71196 236 459.201)" stroke="#FAF6F6" stroke-width="10"/>
<line y1="-5" x2="48.2246" y2="-5" transform="matrix(0.683506 -0.729945 0.70222 0.71196 193 504.201)" stroke="#FAF6F6" stroke-width="10"/>
<line y1="-5" x2="48.2246" y2="-5" transform="matrix(0.683506 -0.729945 0.70222 0.71196 153 546.201)" stroke="#FAF6F6" stroke-width="10"/>
<line y1="-5" x2="48.2246" y2="-5" transform="matrix(0.683506 -0.729945 0.70222 0.71196 112 591.201)" stroke="#FAF6F6" stroke-width="10"/>
<line y1="-5" x2="48.2246" y2="-5" transform="matrix(0.683506 -0.729945 0.70222 0.71196 71 635.201)" stroke="#FAF6F6" stroke-width="10"/>
<line y1="-5" x2="48.2246" y2="-5" transform="matrix(0.683506 -0.729945 0.70222 0.71196 32 677.201)" stroke="#FAF6F6" stroke-width="10"/>
<line y1="-5" x2="48.2246" y2="-5" transform="matrix(0.683506 -0.729945 0.70222 0.71196 352 360.201)" stroke="#FAF6F6" stroke-width="10"/>
<line y1="-5" x2="48.2246" y2="-5" transform="matrix(0.683506 -0.729945 0.70222 0.71196 311 407.201)" stroke="#FAF6F6" stroke-width="10"/>
<line y1="-5" x2="48.2246" y2="-5" transform="matrix(0.683506 -0.729945 0.70222 0.71196 271 448.201)" stroke="#FAF6F6" stroke-width="10"/>
<line y1="-5" x2="48.2246" y2="-5" transform="matrix(0.683506 -0.729945 0.70222 0.71196 232 490.201)" stroke="#FAF6F6" stroke-width="10"/>
<line y1="-5" x2="48.2246" y2="-5" transform="matrix(0.683506 -0.729945 0.70222 0.71196 189 535.201)" stroke="#FAF6F6" stroke-width="10"/>
<line y1="-5" x2="48.2246" y2="-5" transform="matrix(0.683506 -0.729945 0.70222 0.71196 149 577.201)" stroke="#FAF6F6" stroke-width="10"/>
<line y1="-5" x2="48.2246" y2="-5" transform="matrix(0.683506 -0.729945 0.70222 0.71196 108 622.201)" stroke="#FAF6F6" stroke-width="10"/>
<line y1="-5" x2="48.2246" y2="-5" transform="matrix(0.683506 -0.729945 0.70222 0.71196 67 666.201)" stroke="#FAF6F6" stroke-width="10"/>
<line y1="-5" x2="48.2246" y2="-5" transform="matrix(0.683506 -0.729945 0.70222 0.71196 28 708.201)" stroke="#FAF6F6" stroke-width="10"/>
<line y1="-5" x2="48.2246" y2="-5" transform="matrix(0.683506 -0.729945 0.70222 0.71196 346 393.201)" stroke="#FAF6F6" stroke-width="10"/>
<line y1="-5" x2="48.2246" y2="-5" transform="matrix(0.683506 -0.729945 0.70222 0.71196 305 440.201)" stroke="#FAF6F6" stroke-width="10"/>
<line y1="-5" x2="48.2246" y2="-5" transform="matrix(0.683506 -0.729945 0.70222 0.71196 265 481.201)" stroke="#FAF6F6" stroke-width="10"/>
<line y1="-5" x2="48.2246" y2="-5" transform="matrix(0.683506 -0.729945 0.70222 0.71196 226 523.201)" stroke="#FAF6F6" stroke-width="10"/>
<line y1="-5" x2="48.2246" y2="-5" transform="matrix(0.683506 -0.729945 0.70222 0.71196 183 568.201)" stroke="#FAF6F6" stroke-width="10"/>
<line y1="-5" x2="48.2246" y2="-5" transform="matrix(0.683506 -0.729945 0.70222 0.71196 143 610.201)" stroke="#FAF6F6" stroke-width="10"/>
<line y1="-5" x2="48.2246" y2="-5" transform="matrix(0.683506 -0.729945 0.70222 0.71196 102 655.201)" stroke="#FAF6F6" stroke-width="10"/>
<line y1="-5" x2="48.2246" y2="-5" transform="matrix(0.683506 -0.729945 0.70222 0.71196 61 699.201)" stroke="#FAF6F6" stroke-width="10"/>
<line y1="-5" x2="48.2246" y2="-5" transform="matrix(0.683506 -0.729945 0.70222 0.71196 22 741.201)" stroke="#FAF6F6" stroke-width="10"/>
<line y1="-5" x2="48.2246" y2="-5" transform="matrix(0.683506 -0.729945 0.70222 0.71196 -15 781.201)" stroke="#FAF6F6" stroke-width="10"/>
<line y1="-5" x2="48.2246" y2="-5" transform="matrix(0.683506 -0.729945 0.70222 0.71196 -9 748.201)" stroke="#FAF6F6" stroke-width="10"/>
<line y1="-5" x2="48.2246" y2="-5" transform="matrix(0.683506 -0.729945 0.70222 0.71196 -5 717.201)" stroke="#FAF6F6" stroke-width="10"/>
<line y1="-5" x2="48.2246" y2="-5" transform="matrix(0.683506 -0.729945 0.70222 0.71196 398 766.201)" stroke="#FAF6F6" stroke-width="10"/>
<line y1="-5" x2="48.2246" y2="-5" transform="matrix(0.683506 -0.729945 0.70222 0.71196 358 808.201)" stroke="#FAF6F6" stroke-width="10"/>
<line y1="-5" x2="48.2246" y2="-5" transform="matrix(0.683506 -0.729945 0.70222 0.71196 317 853.201)" stroke="#FAF6F6" stroke-width="10"/>
<line y1="-5" x2="48.2246" y2="-5" transform="matrix(0.683506 -0.729945 0.70222 0.71196 276 897.201)" stroke="#FAF6F6" stroke-width="10"/>
<line y1="-5" x2="48.2246" y2="-5" transform="matrix(0.683506 -0.729945 0.70222 0.71196 394 797.201)" stroke="#FAF6F6" stroke-width="10"/>
<line y1="-5" x2="48.2246" y2="-5" transform="matrix(0.683506 -0.729945 0.70222 0.71196 354 839.201)" stroke="#FAF6F6" stroke-width="10"/>
<line y1="-5" x2="48.2246" y2="-5" transform="matrix(0.683506 -0.729945 0.70222 0.71196 313 884.201)" stroke="#FAF6F6" stroke-width="10"/>
<line y1="-5" x2="48.2246" y2="-5" transform="matrix(0.683506 -0.729945 0.70222 0.71196 388 830.201)" stroke="#FAF6F6" stroke-width="10"/>
<line y1="-5" x2="48.2246" y2="-5" transform="matrix(0.683506 -0.729945 0.70222 0.71196 348 872.201)" stroke="#FAF6F6" stroke-width="10"/>
<line y1="-5" x2="48.2246" y2="-5" transform="matrix(0.683506 -0.729945 0.70222 0.71196 386 857.201)" stroke="#FAF6F6" stroke-width="10"/>
<line y1="-5" x2="48.2246" y2="-5" transform="matrix(0.683506 -0.729945 0.70222 0.71196 386 886.201)" stroke="#FAF6F6" stroke-width="10"/>
<line y1="-5" x2="48.2246" y2="-5" transform="matrix(0.683506 -0.729945 0.70222 0.71196 -26 873.201)" stroke="#FAF6F6" stroke-width="10"/>
<line y1="-5" x2="48.2246" y2="-5" transform="matrix(0.683506 -0.729945 0.70222 0.71196 368 480.201)" stroke="#FAF6F6" stroke-width="10"/>
<line y1="-5" x2="48.2246" y2="-5" transform="matrix(0.683506 -0.729945 0.70222 0.71196 327 527.201)" stroke="#FAF6F6" stroke-width="10"/>
<line y1="-5" x2="48.2246" y2="-5" transform="matrix(0.683506 -0.729945 0.70222 0.71196 287 568.201)" stroke="#FAF6F6" stroke-width="10"/>
<line y1="-5" x2="48.2246" y2="-5" transform="matrix(0.683506 -0.729945 0.70222 0.71196 248 610.201)" stroke="#FAF6F6" stroke-width="10"/>
<line y1="-5" x2="48.2246" y2="-5" transform="matrix(0.683506 -0.729945 0.70222 0.71196 205 655.201)" stroke="#FAF6F6" stroke-width="10"/>
<line y1="-5" x2="48.2246" y2="-5" transform="matrix(0.683506 -0.729945 0.70222 0.71196 165 697.201)" stroke="#FAF6F6" stroke-width="10"/>
<line y1="-5" x2="48.2246" y2="-5" transform="matrix(0.683506 -0.729945 0.70222 0.71196 124 742.201)" stroke="#FAF6F6" stroke-width="10"/>
<line y1="-5" x2="48.2246" y2="-5" transform="matrix(0.683506 -0.729945 0.70222 0.71196 83 786.201)" stroke="#FAF6F6" stroke-width="10"/>
<line y1="-5" x2="48.2246" y2="-5" transform="matrix(0.683506 -0.729945 0.70222 0.71196 44 828.201)" stroke="#FAF6F6" stroke-width="10"/>
<line y1="-5" x2="48.2246" y2="-5" transform="matrix(0.683506 -0.729945 0.70222 0.71196 364 511.201)" stroke="#FAF6F6" stroke-width="10"/>
<line y1="-5" x2="48.2246" y2="-5" transform="matrix(0.683506 -0.729945 0.70222 0.71196 323 558.201)" stroke="#FAF6F6" stroke-width="10"/>
<line y1="-5" x2="48.2246" y2="-5" transform="matrix(0.683506 -0.729945 0.70222 0.71196 283 599.201)" stroke="#FAF6F6" stroke-width="10"/>
<line y1="-5" x2="48.2246" y2="-5" transform="matrix(0.683506 -0.729945 0.70222 0.71196 244 641.201)" stroke="#FAF6F6" stroke-width="10"/>
<line y1="-5" x2="48.2246" y2="-5" transform="matrix(0.683506 -0.729945 0.70222 0.71196 201 686.201)" stroke="#FAF6F6" stroke-width="10"/>
<line y1="-5" x2="48.2246" y2="-5" transform="matrix(0.683506 -0.729945 0.70222 0.71196 161 728.201)" stroke="#FAF6F6" stroke-width="10"/>
<line y1="-5" x2="48.2246" y2="-5" transform="matrix(0.683506 -0.729945 0.70222 0.71196 120 773.201)" stroke="#FAF6F6" stroke-width="10"/>
<line y1="-5" x2="48.2246" y2="-5" transform="matrix(0.683506 -0.729945 0.70222 0.71196 79 817.201)" stroke="#FAF6F6" stroke-width="10"/>
<line y1="-5" x2="48.2246" y2="-5" transform="matrix(0.683506 -0.729945 0.70222 0.71196 40 859.201)" stroke="#FAF6F6" stroke-width="10"/>
<line y1="-5" x2="48.2246" y2="-5" transform="matrix(0.683506 -0.729945 0.70222 0.71196 358 544.201)" stroke="#FAF6F6" stroke-width="10"/>
<line y1="-5" x2="48.2246" y2="-5" transform="matrix(0.683506 -0.729945 0.70222 0.71196 317 591.201)" stroke="#FAF6F6" stroke-width="10"/>
<line y1="-5" x2="48.2246" y2="-5" transform="matrix(0.683506 -0.729945 0.70222 0.71196 277 632.201)" stroke="#FAF6F6" stroke-width="10"/>
<line y1="-5" x2="48.2246" y2="-5" transform="matrix(0.683506 -0.729945 0.70222 0.71196 238 674.201)" stroke="#FAF6F6" stroke-width="10"/>
<line y1="-5" x2="48.2246" y2="-5" transform="matrix(0.683506 -0.729945 0.70222 0.71196 195 719.201)" stroke="#FAF6F6" stroke-width="10"/>
<line y1="-5" x2="48.2246" y2="-5" transform="matrix(0.683506 -0.729945 0.70222 0.71196 155 761.201)" stroke="#FAF6F6" stroke-width="10"/>
<line y1="-5" x2="48.2246" y2="-5" transform="matrix(0.683506 -0.729945 0.70222 0.71196 114 806.201)" stroke="#FAF6F6" stroke-width="10"/>
<line y1="-5" x2="48.2246" y2="-5" transform="matrix(0.683506 -0.729945 0.70222 0.71196 73 850.201)" stroke="#FAF6F6" stroke-width="10"/>
<line y1="-5" x2="48.2246" y2="-5" transform="matrix(0.683506 -0.729945 0.70222 0.71196 34 892.201)" stroke="#FAF6F6" stroke-width="10"/>
<line y1="-5" x2="48.2246" y2="-5" transform="matrix(0.683506 -0.729945 0.70222 0.71196 3 899.201)" stroke="#FAF6F6" stroke-width="10"/>
<line y1="-5" x2="48.2246" y2="-5" transform="matrix(0.683506 -0.729945 0.70222 0.71196 7 868.201)" stroke="#FAF6F6" stroke-width="10"/>
<line y1="-5" x2="48.2246" y2="-5" transform="matrix(0.683506 -0.729945 0.70222 0.71196 -31 911.201)" stroke="#FAF6F6" stroke-width="10"/>
<line y1="-5" x2="48.2246" y2="-5" transform="matrix(0.683506 -0.729945 0.70222 0.71196 382 378.201)" stroke="#FAF6F6" stroke-width="10"/>
<line y1="-5" x2="48.2246" y2="-5" transform="matrix(0.683506 -0.729945 0.70222 0.71196 341 425.201)" stroke="#FAF6F6" stroke-width="10"/>
<line y1="-5" x2="48.2246" y2="-5" transform="matrix(0.683506 -0.729945 0.70222 0.71196 301 466.201)" stroke="#FAF6F6" stroke-width="10"/>
<line y1="-5" x2="48.2246" y2="-5" transform="matrix(0.683506 -0.729945 0.70222 0.71196 262 508.201)" stroke="#FAF6F6" stroke-width="10"/>
<line y1="-5" x2="48.2246" y2="-5" transform="matrix(0.683506 -0.729945 0.70222 0.71196 219 553.201)" stroke="#FAF6F6" stroke-width="10"/>
<line y1="-5" x2="48.2246" y2="-5" transform="matrix(0.683506 -0.729945 0.70222 0.71196 179 595.201)" stroke="#FAF6F6" stroke-width="10"/>
<line y1="-5" x2="48.2246" y2="-5" transform="matrix(0.683506 -0.729945 0.70222 0.71196 138 640.201)" stroke="#FAF6F6" stroke-width="10"/>
<line y1="-5" x2="48.2246" y2="-5" transform="matrix(0.683506 -0.729945 0.70222 0.71196 97 684.201)" stroke="#FAF6F6" stroke-width="10"/>
<line y1="-5" x2="48.2246" y2="-5" transform="matrix(0.683506 -0.729945 0.70222 0.71196 58 726.201)" stroke="#FAF6F6" stroke-width="10"/>
<line y1="-5" x2="48.2246" y2="-5" transform="matrix(0.683506 -0.729945 0.70222 0.71196 378 409.201)" stroke="#FAF6F6" stroke-width="10"/>
<line y1="-5" x2="48.2246" y2="-5" transform="matrix(0.683506 -0.729945 0.70222 0.71196 337 456.201)" stroke="#FAF6F6" stroke-width="10"/>
<line y1="-5" x2="48.2246" y2="-5" transform="matrix(0.683506 -0.729945 0.70222 0.71196 297 497.201)" stroke="#FAF6F6" stroke-width="10"/>
<line y1="-5" x2="48.2246" y2="-5" transform="matrix(0.683506 -0.729945 0.70222 0.71196 258 539.201)" stroke="#FAF6F6" stroke-width="10"/>
<line y1="-5" x2="48.2246" y2="-5" transform="matrix(0.683506 -0.729945 0.70222 0.71196 215 584.201)" stroke="#FAF6F6" stroke-width="10"/>
<line y1="-5" x2="48.2246" y2="-5" transform="matrix(0.683506 -0.729945 0.70222 0.71196 175 626.201)" stroke="#FAF6F6" stroke-width="10"/>
<line y1="-5" x2="48.2246" y2="-5" transform="matrix(0.683506 -0.729945 0.70222 0.71196 134 671.201)" stroke="#FAF6F6" stroke-width="10"/>
<line y1="-5" x2="48.2246" y2="-5" transform="matrix(0.683506 -0.729945 0.70222 0.71196 93 715.201)" stroke="#FAF6F6" stroke-width="10"/>
<line y1="-5" x2="48.2246" y2="-5" transform="matrix(0.683506 -0.729945 0.70222 0.71196 54 757.201)" stroke="#FAF6F6" stroke-width="10"/>
<line y1="-5" x2="48.2246" y2="-5" transform="matrix(0.683506 -0.729945 0.70222 0.71196 372 442.201)" stroke="#FAF6F6" stroke-width="10"/>
<line y1="-5" x2="48.2246" y2="-5" transform="matrix(0.683506 -0.729945 0.70222 0.71196 331 489.201)" stroke="#FAF6F6" stroke-width="10"/>
<line y1="-5" x2="48.2246" y2="-5" transform="matrix(0.683506 -0.729945 0.70222 0.71196 291 530.201)" stroke="#FAF6F6" stroke-width="10"/>
<line y1="-5" x2="48.2246" y2="-5" transform="matrix(0.683506 -0.729945 0.70222 0.71196 252 572.201)" stroke="#FAF6F6" stroke-width="10"/>
<line y1="-5" x2="48.2246" y2="-5" transform="matrix(0.683506 -0.729945 0.70222 0.71196 209 617.201)" stroke="#FAF6F6" stroke-width="10"/>
<line y1="-5" x2="48.2246" y2="-5" transform="matrix(0.683506 -0.729945 0.70222 0.71196 169 659.201)" stroke="#FAF6F6" stroke-width="10"/>
<line y1="-5" x2="48.2246" y2="-5" transform="matrix(0.683506 -0.729945 0.70222 0.71196 128 704.201)" stroke="#FAF6F6" stroke-width="10"/>
<line y1="-5" x2="48.2246" y2="-5" transform="matrix(0.683506 -0.729945 0.70222 0.71196 87 748.201)" stroke="#FAF6F6" stroke-width="10"/>
<line y1="-5" x2="48.2246" y2="-5" transform="matrix(0.683506 -0.729945 0.70222 0.71196 48 790.201)" stroke="#FAF6F6" stroke-width="10"/>
<line y1="-5" x2="48.2246" y2="-5" transform="matrix(0.683506 -0.729945 0.70222 0.71196 11 830.201)" stroke="#FAF6F6" stroke-width="10"/>
<line y1="-5" x2="48.2246" y2="-5" transform="matrix(0.683506 -0.729945 0.70222 0.71196 17 797.201)" stroke="#FAF6F6" stroke-width="10"/>
<line y1="-5" x2="48.2246" y2="-5" transform="matrix(0.683506 -0.729945 0.70222 0.71196 21 766.201)" stroke="#FAF6F6" stroke-width="10"/>
<line y1="-5" x2="48.2246" y2="-5" transform="matrix(0.683506 -0.729945 0.70222 0.71196 -17 809.201)" stroke="#FAF6F6" stroke-width="10"/>
<line y1="-5" x2="48.2246" y2="-5" transform="matrix(0.683506 -0.729945 0.70222 0.71196 346 907.201)" stroke="#FAF6F6" stroke-width="10"/>
<line y1="-5" x2="48.2246" y2="-5" transform="matrix(0.683506 -0.729945 0.70222 0.71196 18 31.2013)" stroke="#FAF6F6" stroke-width="10"/>
<line y1="-5" x2="48.2246" y2="-5" transform="matrix(0.683506 -0.729945 0.70222 0.71196 -22 73.2013)" stroke="#FAF6F6" stroke-width="10"/>
<line y1="-5" x2="48.2246" y2="-5" transform="matrix(0.683506 -0.729945 0.70222 0.71196 57 17.2013)" stroke="#FAF6F6" stroke-width="10"/>
<line y1="-5" x2="48.2246" y2="-5" transform="matrix(0.683506 -0.729945 0.70222 0.71196 14 62.2013)" stroke="#FAF6F6" stroke-width="10"/>
<line y1="-5" x2="48.2246" y2="-5" transform="matrix(0.683506 -0.729945 0.70222 0.71196 -26 104.201)" stroke="#FAF6F6" stroke-width="10"/>
<line y1="-5" x2="48.2246" y2="-5" transform="matrix(0.683506 -0.729945 0.70222 0.71196 90 8.20129)" stroke="#FAF6F6" stroke-width="10"/>
<line y1="-5" x2="48.2246" y2="-5" transform="matrix(0.683506 -0.729945 0.70222 0.71196 51 50.2013)" stroke="#FAF6F6" stroke-width="10"/>
<line y1="-5" x2="48.2246" y2="-5" transform="matrix(0.683506 -0.729945 0.70222 0.71196 8 95.2013)" stroke="#FAF6F6" stroke-width="10"/>
<line y1="-5" x2="48.2246" y2="-5" transform="matrix(0.683506 -0.729945 0.70222 0.71196 -32 137.201)" stroke="#FAF6F6" stroke-width="10"/>
<line y1="-5" x2="48.2246" y2="-5" transform="matrix(0.683506 -0.729945 0.70222 0.71196 394 542.201)" stroke="#FAF6F6" stroke-width="10"/>
<line y1="-5" x2="48.2246" y2="-5" transform="matrix(0.683506 -0.729945 0.70222 0.71196 354 583.201)" stroke="#FAF6F6" stroke-width="10"/>
<line y1="-5" x2="48.2246" y2="-5" transform="matrix(0.683506 -0.729945 0.70222 0.71196 315 625.201)" stroke="#FAF6F6" stroke-width="10"/>
<line y1="-5" x2="48.2246" y2="-5" transform="matrix(0.683506 -0.729945 0.70222 0.71196 272 670.201)" stroke="#FAF6F6" stroke-width="10"/>
<line y1="-5" x2="48.2246" y2="-5" transform="matrix(0.683506 -0.729945 0.70222 0.71196 232 712.201)" stroke="#FAF6F6" stroke-width="10"/>
<line y1="-5" x2="48.2246" y2="-5" transform="matrix(0.683506 -0.729945 0.70222 0.71196 191 757.201)" stroke="#FAF6F6" stroke-width="10"/>
<line y1="-5" x2="48.2246" y2="-5" transform="matrix(0.683506 -0.729945 0.70222 0.71196 150 801.201)" stroke="#FAF6F6" stroke-width="10"/>
<line y1="-5" x2="48.2246" y2="-5" transform="matrix(0.683506 -0.729945 0.70222 0.71196 111 843.201)" stroke="#FAF6F6" stroke-width="10"/>
<line y1="-5" x2="48.2246" y2="-5" transform="matrix(0.683506 -0.729945 0.70222 0.71196 390 573.201)" stroke="#FAF6F6" stroke-width="10"/>
<line y1="-5" x2="48.2246" y2="-5" transform="matrix(0.683506 -0.729945 0.70222 0.71196 350 614.201)" stroke="#FAF6F6" stroke-width="10"/>
<line y1="-5" x2="48.2246" y2="-5" transform="matrix(0.683506 -0.729945 0.70222 0.71196 311 656.201)" stroke="#FAF6F6" stroke-width="10"/>
<line y1="-5" x2="48.2246" y2="-5" transform="matrix(0.683506 -0.729945 0.70222 0.71196 268 701.201)" stroke="#FAF6F6" stroke-width="10"/>
<line y1="-5" x2="48.2246" y2="-5" transform="matrix(0.683506 -0.729945 0.70222 0.71196 228 743.201)" stroke="#FAF6F6" stroke-width="10"/>
<line y1="-5" x2="48.2246" y2="-5" transform="matrix(0.683506 -0.729945 0.70222 0.71196 187 788.201)" stroke="#FAF6F6" stroke-width="10"/>
<line y1="-5" x2="48.2246" y2="-5" transform="matrix(0.683506 -0.729945 0.70222 0.71196 146 832.201)" stroke="#FAF6F6" stroke-width="10"/>
<line y1="-5" x2="48.2246" y2="-5" transform="matrix(0.683506 -0.729945 0.70222 0.71196 107 874.201)" stroke="#FAF6F6" stroke-width="10"/>
<line y1="-5" x2="48.2246" y2="-5" transform="matrix(0.683506 -0.729945 0.70222 0.71196 384 606.201)" stroke="#FAF6F6" stroke-width="10"/>
<line y1="-5" x2="48.2246" y2="-5" transform="matrix(0.683506 -0.729945 0.70222 0.71196 344 647.201)" stroke="#FAF6F6" stroke-width="10"/>
<line y1="-5" x2="48.2246" y2="-5" transform="matrix(0.683506 -0.729945 0.70222 0.71196 305 689.201)" stroke="#FAF6F6" stroke-width="10"/>
<line y1="-5" x2="48.2246" y2="-5" transform="matrix(0.683506 -0.729945 0.70222 0.71196 262 734.201)" stroke="#FAF6F6" stroke-width="10"/>
<line y1="-5" x2="48.2246" y2="-5" transform="matrix(0.683506 -0.729945 0.70222 0.71196 222 776.201)" stroke="#FAF6F6" stroke-width="10"/>
<line y1="-5" x2="48.2246" y2="-5" transform="matrix(0.683506 -0.729945 0.70222 0.71196 181 821.201)" stroke="#FAF6F6" stroke-width="10"/>
<line y1="-5" x2="48.2246" y2="-5" transform="matrix(0.683506 -0.729945 0.70222 0.71196 140 865.201)" stroke="#FAF6F6" stroke-width="10"/>
<line y1="-5" x2="48.2246" y2="-5" transform="matrix(0.683506 -0.729945 0.70222 0.71196 101 907.201)" stroke="#FAF6F6" stroke-width="10"/>
<line y1="-5" x2="48.2246" y2="-5" transform="matrix(0.683506 -0.729945 0.70222 0.71196 70 914.201)" stroke="#FAF6F6" stroke-width="10"/>
<line y1="-5" x2="48.2246" y2="-5" transform="matrix(0.683506 -0.729945 0.70222 0.71196 74 883.201)" stroke="#FAF6F6" stroke-width="10"/>
<line y1="-5" x2="48.2246" y2="-5" transform="matrix(0.683506 -0.729945 0.70222 0.71196 381 632.201)" stroke="#FAF6F6" stroke-width="10"/>
<line y1="-5" x2="48.2246" y2="-5" transform="matrix(0.683506 -0.729945 0.70222 0.71196 342 674.201)" stroke="#FAF6F6" stroke-width="10"/>
<line y1="-5" x2="48.2246" y2="-5" transform="matrix(0.683506 -0.729945 0.70222 0.71196 299 719.201)" stroke="#FAF6F6" stroke-width="10"/>
<line y1="-5" x2="48.2246" y2="-5" transform="matrix(0.683506 -0.729945 0.70222 0.71196 259 761.201)" stroke="#FAF6F6" stroke-width="10"/>
<line y1="-5" x2="48.2246" y2="-5" transform="matrix(0.683506 -0.729945 0.70222 0.71196 218 806.201)" stroke="#FAF6F6" stroke-width="10"/>
<line y1="-5" x2="48.2246" y2="-5" transform="matrix(0.683506 -0.729945 0.70222 0.71196 177 850.201)" stroke="#FAF6F6" stroke-width="10"/>
<line y1="-5" x2="48.2246" y2="-5" transform="matrix(0.683506 -0.729945 0.70222 0.71196 138 892.201)" stroke="#FAF6F6" stroke-width="10"/>
<line y1="-5" x2="48.2246" y2="-5" transform="matrix(0.683506 -0.729945 0.70222 0.71196 377 663.201)" stroke="#FAF6F6" stroke-width="10"/>
<line y1="-5" x2="48.2246" y2="-5" transform="matrix(0.683506 -0.729945 0.70222 0.71196 338 705.201)" stroke="#FAF6F6" stroke-width="10"/>
<line y1="-5" x2="48.2246" y2="-5" transform="matrix(0.683506 -0.729945 0.70222 0.71196 295 750.201)" stroke="#FAF6F6" stroke-width="10"/>
<line y1="-5" x2="48.2246" y2="-5" transform="matrix(0.683506 -0.729945 0.70222 0.71196 255 792.201)" stroke="#FAF6F6" stroke-width="10"/>
<line y1="-5" x2="48.2246" y2="-5" transform="matrix(0.683506 -0.729945 0.70222 0.71196 214 837.201)" stroke="#FAF6F6" stroke-width="10"/>
<line y1="-5" x2="48.2246" y2="-5" transform="matrix(0.683506 -0.729945 0.70222 0.71196 173 881.201)" stroke="#FAF6F6" stroke-width="10"/>
<line y1="-5" x2="48.2246" y2="-5" transform="matrix(0.683506 -0.729945 0.70222 0.71196 371 696.201)" stroke="#FAF6F6" stroke-width="10"/>
<line y1="-5" x2="48.2246" y2="-5" transform="matrix(0.683506 -0.729945 0.70222 0.71196 332 738.201)" stroke="#FAF6F6" stroke-width="10"/>
<line y1="-5" x2="48.2246" y2="-5" transform="matrix(0.683506 -0.729945 0.70222 0.71196 289 783.201)" stroke="#FAF6F6" stroke-width="10"/>
<line y1="-5" x2="48.2246" y2="-5" transform="matrix(0.683506 -0.729945 0.70222 0.71196 249 825.201)" stroke="#FAF6F6" stroke-width="10"/>
<line y1="-5" x2="48.2246" y2="-5" transform="matrix(0.683506 -0.729945 0.70222 0.71196 208 870.201)" stroke="#FAF6F6" stroke-width="10"/>
<line y1="-5" x2="48.2246" y2="-5" transform="matrix(0.683506 -0.729945 0.70222 0.71196 167 914.201)" stroke="#FAF6F6" stroke-width="10"/>
<line y1="-5" x2="48.2246" y2="-5" transform="matrix(0.683506 -0.729945 0.70222 0.71196 373 721.201)" stroke="#FAF6F6" stroke-width="10"/>
<line y1="-5" x2="48.2246" y2="-5" transform="matrix(0.683506 -0.729945 0.70222 0.71196 330 766.201)" stroke="#FAF6F6" stroke-width="10"/>
<line y1="-5" x2="48.2246" y2="-5" transform="matrix(0.683506 -0.729945 0.70222 0.71196 290 808.201)" stroke="#FAF6F6" stroke-width="10"/>
<line y1="-5" x2="48.2246" y2="-5" transform="matrix(0.683506 -0.729945 0.70222 0.71196 249 853.201)" stroke="#FAF6F6" stroke-width="10"/>
<line y1="-5" x2="48.2246" y2="-5" transform="matrix(0.683506 -0.729945 0.70222 0.71196 208 897.201)" stroke="#FAF6F6" stroke-width="10"/>
<line y1="-5" x2="48.2246" y2="-5" transform="matrix(0.683506 -0.729945 0.70222 0.71196 408 710.201)" stroke="#FAF6F6" stroke-width="10"/>
<line y1="-5" x2="48.2246" y2="-5" transform="matrix(0.683506 -0.729945 0.70222 0.71196 369 752.201)" stroke="#FAF6F6" stroke-width="10"/>
<line y1="-5" x2="48.2246" y2="-5" transform="matrix(0.683506 -0.729945 0.70222 0.71196 326 797.201)" stroke="#FAF6F6" stroke-width="10"/>
<line y1="-5" x2="48.2246" y2="-5" transform="matrix(0.683506 -0.729945 0.70222 0.71196 286 839.201)" stroke="#FAF6F6" stroke-width="10"/>
<line y1="-5" x2="48.2246" y2="-5" transform="matrix(0.683506 -0.729945 0.70222 0.71196 245 884.201)" stroke="#FAF6F6" stroke-width="10"/>
<line y1="-5" x2="48.2246" y2="-5" transform="matrix(0.683506 -0.729945 0.70222 0.71196 402 743.201)" stroke="#FAF6F6" stroke-width="10"/>
<line y1="-5" x2="48.2246" y2="-5" transform="matrix(0.683506 -0.729945 0.70222 0.71196 363 785.201)" stroke="#FAF6F6" stroke-width="10"/>
<line y1="-5" x2="48.2246" y2="-5" transform="matrix(0.683506 -0.729945 0.70222 0.71196 320 830.201)" stroke="#FAF6F6" stroke-width="10"/>
<line y1="-5" x2="48.2246" y2="-5" transform="matrix(0.683506 -0.729945 0.70222 0.71196 280 872.201)" stroke="#FAF6F6" stroke-width="10"/>
<line y1="-5" x2="48.2246" y2="-5" transform="matrix(0.683506 -0.729945 0.70222 0.71196 111 16.2013)" stroke="#FAF6F6" stroke-width="10"/>
<line y1="-5" x2="48.2246" y2="-5" transform="matrix(0.683506 -0.729945 0.70222 0.71196 68 61.2013)" stroke="#FAF6F6" stroke-width="10"/>
<line y1="-5" x2="48.2246" y2="-5" transform="matrix(0.683506 -0.729945 0.70222 0.71196 28 103.201)" stroke="#FAF6F6" stroke-width="10"/>
<line y1="-5" x2="48.2246" y2="-5" transform="matrix(0.683506 -0.729945 0.70222 0.71196 -13 148.201)" stroke="#FAF6F6" stroke-width="10"/>
<line y1="-5" x2="48.2246" y2="-5" transform="matrix(0.683506 -0.729945 0.70222 0.71196 146 5.20129)" stroke="#FAF6F6" stroke-width="10"/>
<line y1="-5" x2="48.2246" y2="-5" transform="matrix(0.683506 -0.729945 0.70222 0.71196 107 47.2013)" stroke="#FAF6F6" stroke-width="10"/>
<line y1="-5" x2="48.2246" y2="-5" transform="matrix(0.683506 -0.729945 0.70222 0.71196 64 92.2013)" stroke="#FAF6F6" stroke-width="10"/>
<line y1="-5" x2="48.2246" y2="-5" transform="matrix(0.683506 -0.729945 0.70222 0.71196 24 134.201)" stroke="#FAF6F6" stroke-width="10"/>
<line y1="-5" x2="48.2246" y2="-5" transform="matrix(0.683506 -0.729945 0.70222 0.71196 -17 179.201)" stroke="#FAF6F6" stroke-width="10"/>
<line y1="-5" x2="48.2246" y2="-5" transform="matrix(0.683506 -0.729945 0.70222 0.71196 140 38.2013)" stroke="#FAF6F6" stroke-width="10"/>
<line y1="-5" x2="48.2246" y2="-5" transform="matrix(0.683506 -0.729945 0.70222 0.71196 101 80.2013)" stroke="#FAF6F6" stroke-width="10"/>
<line y1="-5" x2="48.2246" y2="-5" transform="matrix(0.683506 -0.729945 0.70222 0.71196 58 125.201)" stroke="#FAF6F6" stroke-width="10"/>
<line y1="-5" x2="48.2246" y2="-5" transform="matrix(0.683506 -0.729945 0.70222 0.71196 18 167.201)" stroke="#FAF6F6" stroke-width="10"/>
<line y1="-5" x2="48.2246" y2="-5" transform="matrix(0.683506 -0.729945 0.70222 0.71196 -23 212.201)" stroke="#FAF6F6" stroke-width="10"/>
<line y1="-5" x2="48.2246" y2="-5" transform="matrix(0.683506 -0.729945 0.70222 0.71196 180 25.2012)" stroke="#FAF6F6" stroke-width="10"/>
<line y1="-5" x2="48.2246" y2="-5" transform="matrix(0.683506 -0.729945 0.70222 0.71196 137 70.2012)" stroke="#FAF6F6" stroke-width="10"/>
<line y1="-5" x2="48.2246" y2="-5" transform="matrix(0.683506 -0.729945 0.70222 0.71196 97 112.201)" stroke="#FAF6F6" stroke-width="10"/>
<line y1="-5" x2="48.2246" y2="-5" transform="matrix(0.683506 -0.729945 0.70222 0.71196 56 157.201)" stroke="#FAF6F6" stroke-width="10"/>
<line y1="-5" x2="48.2246" y2="-5" transform="matrix(0.683506 -0.729945 0.70222 0.71196 15 201.201)" stroke="#FAF6F6" stroke-width="10"/>
<line y1="-5" x2="48.2246" y2="-5" transform="matrix(0.683506 -0.729945 0.70222 0.71196 -24 243.201)" stroke="#FAF6F6" stroke-width="10"/>
<line y1="-5" x2="48.2246" y2="-5" transform="matrix(0.683506 -0.729945 0.70222 0.71196 215 14.2012)" stroke="#FAF6F6" stroke-width="10"/>
<line y1="-5" x2="48.2246" y2="-5" transform="matrix(0.683506 -0.729945 0.70222 0.71196 176 56.2012)" stroke="#FAF6F6" stroke-width="10"/>
<line y1="-5" x2="48.2246" y2="-5" transform="matrix(0.683506 -0.729945 0.70222 0.71196 133 101.201)" stroke="#FAF6F6" stroke-width="10"/>
<line y1="-5" x2="48.2246" y2="-5" transform="matrix(0.683506 -0.729945 0.70222 0.71196 93 143.201)" stroke="#FAF6F6" stroke-width="10"/>
<line y1="-5" x2="48.2246" y2="-5" transform="matrix(0.683506 -0.729945 0.70222 0.71196 52 188.201)" stroke="#FAF6F6" stroke-width="10"/>
<line y1="-5" x2="48.2246" y2="-5" transform="matrix(0.683506 -0.729945 0.70222 0.71196 11 232.201)" stroke="#FAF6F6" stroke-width="10"/>
<line y1="-5" x2="48.2246" y2="-5" transform="matrix(0.683506 -0.729945 0.70222 0.71196 -28 274.201)" stroke="#FAF6F6" stroke-width="10"/>
<line y1="-5" x2="48.2246" y2="-5" transform="matrix(0.683506 -0.729945 0.70222 0.71196 249 6.20123)" stroke="#FAF6F6" stroke-width="10"/>
<line y1="-5" x2="48.2246" y2="-5" transform="matrix(0.683506 -0.729945 0.70222 0.71196 209 47.2012)" stroke="#FAF6F6" stroke-width="10"/>
<line y1="-5" x2="48.2246" y2="-5" transform="matrix(0.683506 -0.729945 0.70222 0.71196 170 89.2012)" stroke="#FAF6F6" stroke-width="10"/>
<line y1="-5" x2="48.2246" y2="-5" transform="matrix(0.683506 -0.729945 0.70222 0.71196 127 134.201)" stroke="#FAF6F6" stroke-width="10"/>
<line y1="-5" x2="48.2246" y2="-5" transform="matrix(0.683506 -0.729945 0.70222 0.71196 87 176.201)" stroke="#FAF6F6" stroke-width="10"/>
<line y1="-5" x2="48.2246" y2="-5" transform="matrix(0.683506 -0.729945 0.70222 0.71196 46 221.201)" stroke="#FAF6F6" stroke-width="10"/>
<line y1="-5" x2="48.2246" y2="-5" transform="matrix(0.683506 -0.729945 0.70222 0.71196 5 265.201)" stroke="#FAF6F6" stroke-width="10"/>
<line y1="-5" x2="48.2246" y2="-5" transform="matrix(0.683506 -0.729945 0.70222 0.71196 283 2.20129)" stroke="#FAF6F6" stroke-width="10"/>
<line y1="-5" x2="48.2246" y2="-5" transform="matrix(0.683506 -0.729945 0.70222 0.71196 243 43.2013)" stroke="#FAF6F6" stroke-width="10"/>
<line y1="-5" x2="48.2246" y2="-5" transform="matrix(0.683506 -0.729945 0.70222 0.71196 204 85.2013)" stroke="#FAF6F6" stroke-width="10"/>
<line y1="-5" x2="48.2246" y2="-5" transform="matrix(0.683506 -0.729945 0.70222 0.71196 161 130.201)" stroke="#FAF6F6" stroke-width="10"/>
<line y1="-5" x2="48.2246" y2="-5" transform="matrix(0.683506 -0.729945 0.70222 0.71196 121 172.201)" stroke="#FAF6F6" stroke-width="10"/>
<line y1="-5" x2="48.2246" y2="-5" transform="matrix(0.683506 -0.729945 0.70222 0.71196 80 217.201)" stroke="#FAF6F6" stroke-width="10"/>
<line y1="-5" x2="48.2246" y2="-5" transform="matrix(0.683506 -0.729945 0.70222 0.71196 39 261.201)" stroke="#FAF6F6" stroke-width="10"/>
<line y1="-5" x2="48.2246" y2="-5" transform="matrix(0.683506 -0.729945 0.70222 0.71196 0 303.201)" stroke="#FAF6F6" stroke-width="10"/>
<line y1="-5" x2="48.2246" y2="-5" transform="matrix(0.683506 -0.729945 0.70222 0.71196 279 33.2013)" stroke="#FAF6F6" stroke-width="10"/>
<line y1="-5" x2="48.2246" y2="-5" transform="matrix(0.683506 -0.729945 0.70222 0.71196 239 74.2013)" stroke="#FAF6F6" stroke-width="10"/>
<line y1="-5" x2="48.2246" y2="-5" transform="matrix(0.683506 -0.729945 0.70222 0.71196 200 116.201)" stroke="#FAF6F6" stroke-width="10"/>
<line y1="-5" x2="48.2246" y2="-5" transform="matrix(0.683506 -0.729945 0.70222 0.71196 157 161.201)" stroke="#FAF6F6" stroke-width="10"/>
<line y1="-5" x2="48.2246" y2="-5" transform="matrix(0.683506 -0.729945 0.70222 0.71196 117 203.201)" stroke="#FAF6F6" stroke-width="10"/>
<line y1="-5" x2="48.2246" y2="-5" transform="matrix(0.683506 -0.729945 0.70222 0.71196 76 248.201)" stroke="#FAF6F6" stroke-width="10"/>
<line y1="-5" x2="48.2246" y2="-5" transform="matrix(0.683506 -0.729945 0.70222 0.71196 35 292.201)" stroke="#FAF6F6" stroke-width="10"/>
<line y1="-5" x2="48.2246" y2="-5" transform="matrix(0.683506 -0.729945 0.70222 0.71196 -4 334.201)" stroke="#FAF6F6" stroke-width="10"/>
<line y1="-5" x2="48.2246" y2="-5" transform="matrix(0.683506 -0.729945 0.70222 0.71196 314 19.2013)" stroke="#FAF6F6" stroke-width="10"/>
<line y1="-5" x2="48.2246" y2="-5" transform="matrix(0.683506 -0.729945 0.70222 0.71196 273 66.2013)" stroke="#FAF6F6" stroke-width="10"/>
<line y1="-5" x2="48.2246" y2="-5" transform="matrix(0.683506 -0.729945 0.70222 0.71196 233 107.201)" stroke="#FAF6F6" stroke-width="10"/>
<line y1="-5" x2="48.2246" y2="-5" transform="matrix(0.683506 -0.729945 0.70222 0.71196 194 149.201)" stroke="#FAF6F6" stroke-width="10"/>
<line y1="-5" x2="48.2246" y2="-5" transform="matrix(0.683506 -0.729945 0.70222 0.71196 151 194.201)" stroke="#FAF6F6" stroke-width="10"/>
<line y1="-5" x2="48.2246" y2="-5" transform="matrix(0.683506 -0.729945 0.70222 0.71196 111 236.201)" stroke="#FAF6F6" stroke-width="10"/>
<line y1="-5" x2="48.2246" y2="-5" transform="matrix(0.683506 -0.729945 0.70222 0.71196 70 281.201)" stroke="#FAF6F6" stroke-width="10"/>
<line y1="-5" x2="48.2246" y2="-5" transform="matrix(0.683506 -0.729945 0.70222 0.71196 29 325.201)" stroke="#FAF6F6" stroke-width="10"/>
<line y1="-5" x2="48.2246" y2="-5" transform="matrix(0.683506 -0.729945 0.70222 0.71196 -10 367.201)" stroke="#FAF6F6" stroke-width="10"/>
<line y1="-5" x2="48.2246" y2="-5" transform="matrix(0.683506 -0.729945 0.70222 0.71196 350 16.2012)" stroke="#FAF6F6" stroke-width="10"/>
<line y1="-5" x2="48.2246" y2="-5" transform="matrix(0.683506 -0.729945 0.70222 0.71196 310 57.2012)" stroke="#FAF6F6" stroke-width="10"/>
<line y1="-5" x2="48.2246" y2="-5" transform="matrix(0.683506 -0.729945 0.70222 0.71196 271 99.2012)" stroke="#FAF6F6" stroke-width="10"/>
<line y1="-5" x2="48.2246" y2="-5" transform="matrix(0.683506 -0.729945 0.70222 0.71196 228 144.201)" stroke="#FAF6F6" stroke-width="10"/>
<line y1="-5" x2="48.2246" y2="-5" transform="matrix(0.683506 -0.729945 0.70222 0.71196 188 186.201)" stroke="#FAF6F6" stroke-width="10"/>
<line y1="-5" x2="48.2246" y2="-5" transform="matrix(0.683506 -0.729945 0.70222 0.71196 147 231.201)" stroke="#FAF6F6" stroke-width="10"/>
<line y1="-5" x2="48.2246" y2="-5" transform="matrix(0.683506 -0.729945 0.70222 0.71196 106 275.201)" stroke="#FAF6F6" stroke-width="10"/>
<line y1="-5" x2="48.2246" y2="-5" transform="matrix(0.683506 -0.729945 0.70222 0.71196 67 317.201)" stroke="#FAF6F6" stroke-width="10"/>
<line y1="-5" x2="48.2246" y2="-5" transform="matrix(0.683506 -0.729945 0.70222 0.71196 387 0.201233)" stroke="#FAF6F6" stroke-width="10"/>
<line y1="-5" x2="48.2246" y2="-5" transform="matrix(0.683506 -0.729945 0.70222 0.71196 346 47.2012)" stroke="#FAF6F6" stroke-width="10"/>
<line y1="-5" x2="48.2246" y2="-5" transform="matrix(0.683506 -0.729945 0.70222 0.71196 306 88.2012)" stroke="#FAF6F6" stroke-width="10"/>
<line y1="-5" x2="48.2246" y2="-5" transform="matrix(0.683506 -0.729945 0.70222 0.71196 267 130.201)" stroke="#FAF6F6" stroke-width="10"/>
<line y1="-5" x2="48.2246" y2="-5" transform="matrix(0.683506 -0.729945 0.70222 0.71196 224 175.201)" stroke="#FAF6F6" stroke-width="10"/>
<line y1="-5" x2="48.2246" y2="-5" transform="matrix(0.683506 -0.729945 0.70222 0.71196 184 217.201)" stroke="#FAF6F6" stroke-width="10"/>
<line y1="-5" x2="48.2246" y2="-5" transform="matrix(0.683506 -0.729945 0.70222 0.71196 143 262.201)" stroke="#FAF6F6" stroke-width="10"/>
<line y1="-5" x2="48.2246" y2="-5" transform="matrix(0.683506 -0.729945 0.70222 0.71196 102 306.201)" stroke="#FAF6F6" stroke-width="10"/>
<line y1="-5" x2="48.2246" y2="-5" transform="matrix(0.683506 -0.729945 0.70222 0.71196 63 348.201)" stroke="#FAF6F6" stroke-width="10"/>
<line y1="-5" x2="48.2246" y2="-5" transform="matrix(0.683506 -0.729945 0.70222 0.71196 381 33.2012)" stroke="#FAF6F6" stroke-width="10"/>
<line y1="-5" x2="48.2246" y2="-5" transform="matrix(0.683506 -0.729945 0.70222 0.71196 340 80.2012)" stroke="#FAF6F6" stroke-width="10"/>
<line y1="-5" x2="48.2246" y2="-5" transform="matrix(0.683506 -0.729945 0.70222 0.71196 300 121.201)" stroke="#FAF6F6" stroke-width="10"/>
<line y1="-5" x2="48.2246" y2="-5" transform="matrix(0.683506 -0.729945 0.70222 0.71196 261 163.201)" stroke="#FAF6F6" stroke-width="10"/>
<line y1="-5" x2="48.2246" y2="-5" transform="matrix(0.683506 -0.729945 0.70222 0.71196 218 208.201)" stroke="#FAF6F6" stroke-width="10"/>
<line y1="-5" x2="48.2246" y2="-5" transform="matrix(0.683506 -0.729945 0.70222 0.71196 178 250.201)" stroke="#FAF6F6" stroke-width="10"/>
<line y1="-5" x2="48.2246" y2="-5" transform="matrix(0.683506 -0.729945 0.70222 0.71196 137 295.201)" stroke="#FAF6F6" stroke-width="10"/>
<line y1="-5" x2="48.2246" y2="-5" transform="matrix(0.683506 -0.729945 0.70222 0.71196 96 339.201)" stroke="#FAF6F6" stroke-width="10"/>
<line y1="-5" x2="48.2246" y2="-5" transform="matrix(0.683506 -0.729945 0.70222 0.71196 57 381.201)" stroke="#FAF6F6" stroke-width="10"/>
<line y1="-5" x2="48.2246" y2="-5" transform="matrix(0.683506 -0.729945 0.70222 0.71196 20 421.201)" stroke="#FAF6F6" stroke-width="10"/>
<line y1="-5" x2="48.2246" y2="-5" transform="matrix(0.683506 -0.729945 0.70222 0.71196 26 388.201)" stroke="#FAF6F6" stroke-width="10"/>
<line y1="-5" x2="48.2246" y2="-5" transform="matrix(0.683506 -0.729945 0.70222 0.71196 30 357.201)" stroke="#FAF6F6" stroke-width="10"/>
<line y1="-5" x2="48.2246" y2="-5" transform="matrix(0.683506 -0.729945 0.70222 0.71196 -8 400.201)" stroke="#FAF6F6" stroke-width="10"/>
<line y1="-5" x2="48.2246" y2="-5" transform="matrix(0.683506 -0.729945 0.70222 0.71196 376 70.2013)" stroke="#FAF6F6" stroke-width="10"/>
<line y1="-5" x2="48.2246" y2="-5" transform="matrix(0.683506 -0.729945 0.70222 0.71196 335 117.201)" stroke="#FAF6F6" stroke-width="10"/>
<line y1="-5" x2="48.2246" y2="-5" transform="matrix(0.683506 -0.729945 0.70222 0.71196 295 158.201)" stroke="#FAF6F6" stroke-width="10"/>
<line y1="-5" x2="48.2246" y2="-5" transform="matrix(0.683506 -0.729945 0.70222 0.71196 256 200.201)" stroke="#FAF6F6" stroke-width="10"/>
<line y1="-5" x2="48.2246" y2="-5" transform="matrix(0.683506 -0.729945 0.70222 0.71196 213 245.201)" stroke="#FAF6F6" stroke-width="10"/>
<line y1="-5" x2="48.2246" y2="-5" transform="matrix(0.683506 -0.729945 0.70222 0.71196 173 287.201)" stroke="#FAF6F6" stroke-width="10"/>
<line y1="-5" x2="48.2246" y2="-5" transform="matrix(0.683506 -0.729945 0.70222 0.71196 132 332.201)" stroke="#FAF6F6" stroke-width="10"/>
<line y1="-5" x2="48.2246" y2="-5" transform="matrix(0.683506 -0.729945 0.70222 0.71196 91 376.201)" stroke="#FAF6F6" stroke-width="10"/>
<line y1="-5" x2="48.2246" y2="-5" transform="matrix(0.683506 -0.729945 0.70222 0.71196 52 418.201)" stroke="#FAF6F6" stroke-width="10"/>
<line y1="-5" x2="48.2246" y2="-5" transform="matrix(0.683506 -0.729945 0.70222 0.71196 372 101.201)" stroke="#FAF6F6" stroke-width="10"/>
<line y1="-5" x2="48.2246" y2="-5" transform="matrix(0.683506 -0.729945 0.70222 0.71196 331 148.201)" stroke="#FAF6F6" stroke-width="10"/>
<line y1="-5" x2="48.2246" y2="-5" transform="matrix(0.683506 -0.729945 0.70222 0.71196 291 189.201)" stroke="#FAF6F6" stroke-width="10"/>
<line y1="-5" x2="48.2246" y2="-5" transform="matrix(0.683506 -0.729945 0.70222 0.71196 252 231.201)" stroke="#FAF6F6" stroke-width="10"/>
<line y1="-5" x2="48.2246" y2="-5" transform="matrix(0.683506 -0.729945 0.70222 0.71196 209 276.201)" stroke="#FAF6F6" stroke-width="10"/>
<line y1="-5" x2="48.2246" y2="-5" transform="matrix(0.683506 -0.729945 0.70222 0.71196 169 318.201)" stroke="#FAF6F6" stroke-width="10"/>
<line y1="-5" x2="48.2246" y2="-5" transform="matrix(0.683506 -0.729945 0.70222 0.71196 128 363.201)" stroke="#FAF6F6" stroke-width="10"/>
<line y1="-5" x2="48.2246" y2="-5" transform="matrix(0.683506 -0.729945 0.70222 0.71196 87 407.201)" stroke="#FAF6F6" stroke-width="10"/>
<line y1="-5" x2="48.2246" y2="-5" transform="matrix(0.683506 -0.729945 0.70222 0.71196 48 449.201)" stroke="#FAF6F6" stroke-width="10"/>
<line y1="-5" x2="48.2246" y2="-5" transform="matrix(0.683506 -0.729945 0.70222 0.71196 366 134.201)" stroke="#FAF6F6" stroke-width="10"/>
<line y1="-5" x2="48.2246" y2="-5" transform="matrix(0.683506 -0.729945 0.70222 0.71196 325 181.201)" stroke="#FAF6F6" stroke-width="10"/>
<line y1="-5" x2="48.2246" y2="-5" transform="matrix(0.683506 -0.729945 0.70222 0.71196 285 222.201)" stroke="#FAF6F6" stroke-width="10"/>
<line y1="-5" x2="48.2246" y2="-5" transform="matrix(0.683506 -0.729945 0.70222 0.71196 246 264.201)" stroke="#FAF6F6" stroke-width="10"/>
<line y1="-5" x2="48.2246" y2="-5" transform="matrix(0.683506 -0.729945 0.70222 0.71196 203 309.201)" stroke="#FAF6F6" stroke-width="10"/>
<line y1="-5" x2="48.2246" y2="-5" transform="matrix(0.683506 -0.729945 0.70222 0.71196 163 351.201)" stroke="#FAF6F6" stroke-width="10"/>
<line y1="-5" x2="48.2246" y2="-5" transform="matrix(0.683506 -0.729945 0.70222 0.71196 122 396.201)" stroke="#FAF6F6" stroke-width="10"/>
<line y1="-5" x2="48.2246" y2="-5" transform="matrix(0.683506 -0.729945 0.70222 0.71196 81 440.201)" stroke="#FAF6F6" stroke-width="10"/>
<line y1="-5" x2="48.2246" y2="-5" transform="matrix(0.683506 -0.729945 0.70222 0.71196 42 482.201)" stroke="#FAF6F6" stroke-width="10"/>
<line y1="-5" x2="48.2246" y2="-5" transform="matrix(0.683506 -0.729945 0.70222 0.71196 5 522.201)" stroke="#FAF6F6" stroke-width="10"/>
<line y1="-5" x2="48.2246" y2="-5" transform="matrix(0.683506 -0.729945 0.70222 0.71196 11 489.201)" stroke="#FAF6F6" stroke-width="10"/>
<line y1="-5" x2="48.2246" y2="-5" transform="matrix(0.683506 -0.729945 0.70222 0.71196 15 458.201)" stroke="#FAF6F6" stroke-width="10"/>
<line y1="-5" x2="48.2246" y2="-5" transform="matrix(0.683506 -0.729945 0.70222 0.71196 -23 501.201)" stroke="#FAF6F6" stroke-width="10"/>
<line y1="-5" x2="48.2246" y2="-5" transform="matrix(0.683506 -0.729945 0.70222 0.71196 18 31.2013)" stroke="#FAF6F6" stroke-width="10"/>
<line y1="-5" x2="48.2246" y2="-5" transform="matrix(0.683506 -0.729945 0.70222 0.71196 -22 73.2013)" stroke="#FAF6F6" stroke-width="10"/>
<line y1="-5" x2="48.2246" y2="-5" transform="matrix(0.683506 -0.729945 0.70222 0.71196 57 17.2013)" stroke="#FAF6F6" stroke-width="10"/>
<line y1="-5" x2="48.2246" y2="-5" transform="matrix(0.683506 -0.729945 0.70222 0.71196 14 62.2013)" stroke="#FAF6F6" stroke-width="10"/>
<line y1="-5" x2="48.2246" y2="-5" transform="matrix(0.683506 -0.729945 0.70222 0.71196 -26 104.201)" stroke="#FAF6F6" stroke-width="10"/>
<line y1="-5" x2="48.2246" y2="-5" transform="matrix(0.683506 -0.729945 0.70222 0.71196 90 8.20129)" stroke="#FAF6F6" stroke-width="10"/>
<line y1="-5" x2="48.2246" y2="-5" transform="matrix(0.683506 -0.729945 0.70222 0.71196 51 50.2013)" stroke="#FAF6F6" stroke-width="10"/>
<line y1="-5" x2="48.2246" y2="-5" transform="matrix(0.683506 -0.729945 0.70222 0.71196 8 95.2013)" stroke="#FAF6F6" stroke-width="10"/>
<line y1="-5" x2="48.2246" y2="-5" transform="matrix(0.683506 -0.729945 0.70222 0.71196 -32 137.201)" stroke="#FAF6F6" stroke-width="10"/>
<line y1="-5" x2="48.2246" y2="-5" transform="matrix(0.683506 -0.729945 0.70222 0.71196 -25 847.201)" stroke="#FAF6F6" stroke-width="10"/>
</svg>
