<svg width="387" height="316" viewBox="0 0 387 316" fill="none" xmlns="http://www.w3.org/2000/svg">
<path d="M84.0152 110.74C97.2129 109.836 105.628 107.511 138.714 116.123C138.714 116.123 97.3443 193.917 84.0152 199.453C84.0152 199.453 59.8624 212.177 48.6608 219.384V204.99C48.6608 193.592 62.4444 185.612 62.4444 185.612L38.5389 199.453C38.5389 199.453 37.6782 186.436 43.0923 179.522C48.5064 172.608 57.9996 169.557 57.9996 169.557L33.9854 173.432C26.5861 159.037 57.9996 143.807 57.9996 143.807L33.9854 155.162C33.9854 140.551 43.0923 126.926 57.9996 119.199C57.9996 119.199 70.8173 111.644 84.0152 110.74Z" fill="#4B4B4B" stroke="#4B4B4B"/>
<path d="M311.311 110.773C298.345 109.839 290.077 107.434 257.571 116.339C257.571 116.339 298.215 196.77 311.311 202.494C311.311 202.494 335.04 215.649 346.045 223.1V208.218C346.045 196.434 332.503 188.184 332.503 188.184L355.99 202.494C355.99 202.494 356.835 189.035 351.515 181.886C346.197 174.738 336.87 171.584 336.87 171.584L360.463 175.59C367.733 160.708 336.87 144.962 336.87 144.962L360.463 156.701C360.463 141.594 355.99 129.57 336.87 119.519C336.87 119.519 324.277 111.709 311.311 110.773Z" fill="#4B4B4B" stroke="#4B4B4B"/>
<path d="M296.571 206.932C296.571 236.052 285.422 256.26 268.267 269.237C251.046 282.267 227.603 288.13 202.889 288.13C176.082 288.13 152.098 284.662 134.017 272.844C116.044 261.097 103.62 240.905 100.329 206.772C97.0451 172.711 107.124 146.676 125.664 129.135C144.243 111.558 171.509 102.331 202.889 102.331C234.125 102.331 257.476 113.909 273.048 132.661C288.653 151.454 296.571 177.61 296.571 206.932Z" fill="#787878" stroke="#4B4B4B" stroke-width="3"/>
<path d="M220.427 216.23C220.427 231.409 220.989 245.397 199.071 245.397C177.154 245.397 177.716 231.409 177.716 216.23C177.716 201.05 189.76 185.941 199.071 185.941C208.383 185.941 220.427 201.05 220.427 216.23Z" fill="#3A3939"/>
<path d="M88.9973 114.255C102.337 113.537 110.843 111.69 144.286 118.529C144.286 118.529 95.0655 189.359 82.2548 197.297C69.444 205.236 64.5844 206.229 53.262 211.953C53.262 211.953 54.3667 203.937 57.3076 197.297C60.5661 189.941 69.444 182.643 69.444 182.643L44.4968 193.023C44.4968 193.023 47.7896 180.806 53.262 175.316C58.9438 169.616 62.7015 166.767 62.7015 166.767L38.4286 169.821C38.4286 158.829 62.7015 140.511 62.7015 140.511L38.4286 149.06C38.4286 137.458 51.3625 125.622 62.7015 120.972C62.7015 120.972 75.6573 114.973 88.9973 114.255Z" fill="#787878" stroke="#787878"/>
<path d="M85.7361 115.688C85.7361 115.688 103.058 113.477 129.429 120.161C129.429 120.161 95.8378 184.915 85.7361 192.673C75.6344 200.431 67.2333 202.643 58.3052 208.237L65.7486 192.673L75.3187 178.351L51.3935 188.495C51.3935 182.807 58.3052 174.122 58.3052 174.122L69.433 162.338L46.6085 166.68C46.6085 155.937 69.433 137.173 69.433 137.173L44 146.211C44 134.872 56.8074 127.329 65.7486 122.783C74.6898 118.237 85.7361 115.688 85.7361 115.688Z" fill="#636161" stroke="#787878"/>
<path d="M306.401 114.284C292.828 113.54 284.173 111.623 250.143 118.72C250.143 118.72 300.227 192.223 313.262 200.461C326.298 208.698 331.243 209.729 342.764 215.669C342.764 215.669 341.639 207.351 338.647 200.461C335.332 192.826 326.298 185.253 326.298 185.253L351.682 196.026C351.682 196.026 348.332 183.346 342.764 177.65C336.982 171.734 333.158 168.778 333.158 168.778L357.857 171.946C357.857 160.541 333.158 141.532 333.158 141.532L357.857 150.402C357.857 138.363 344.696 126.081 333.158 121.254C333.158 121.254 319.975 115.029 306.401 114.284Z" fill="#787878" stroke="#787878"/>
<path d="M309.684 115.702C309.684 115.702 291.234 113.402 263.143 120.353C263.143 120.353 298.924 187.698 309.684 195.767C320.446 203.835 329.394 206.135 338.904 211.953L330.976 195.767L320.782 180.871L346.267 191.422C346.267 185.505 338.904 176.474 338.904 176.474L327.051 164.218L351.364 168.734C351.364 157.562 327.051 138.045 327.051 138.045L354.143 147.447C354.143 135.654 340.5 127.808 330.976 123.08C321.451 118.353 309.684 115.702 309.684 115.702Z" fill="#636161" stroke="#787878"/>
<path d="M138.714 171.077C138.714 171.077 149.795 178.241 157.435 178.501C165.635 178.781 177.714 171.375 177.714 171.375" stroke="#3A3939" stroke-width="3"/>
<path d="M218.571 171.077C218.571 171.077 229.652 176.45 237.292 176.645C245.492 176.855 257.571 171.301 257.571 171.301" stroke="#3A3939" stroke-width="3"/>
<path d="M198.143 241.68C198.143 252.559 198.143 266.873 172.143 260.575" stroke="#3A3939" stroke-width="3"/>
<path d="M200 241.68C200 252.559 200 266.873 222.286 260.575" stroke="#3A3939" stroke-width="3"/>
<path d="M5 158.071L196.256 2L382 158.071H5Z" fill="#B46C32" stroke="#6D401C" stroke-width="3"/>
<path d="M196.178 3.85803L298.429 156.213H10.5714L196.178 3.85803Z" fill="#CE7C39"/>
<path d="M177.714 184.083C177.714 184.083 198.143 175.722 218.571 184.083" stroke="#6C401C" stroke-width="3"/>
<path d="M139.898 182.488C139.935 182.41 139.97 182.336 140.006 182.267C140.175 182.269 140.365 182.27 140.577 182.271C141.539 182.278 142.934 182.285 144.667 182.29C148.132 182.3 152.951 182.3 158.366 182.259C163.564 182.22 168.239 182.22 171.615 182.231C173.302 182.235 174.665 182.242 175.605 182.249C175.822 182.25 176.017 182.251 176.187 182.253C176.246 182.362 176.309 182.481 176.374 182.611C176.73 183.318 177.147 184.281 177.419 185.343C177.968 187.484 177.876 189.648 176.053 191.269C169.203 197.36 163.126 200.598 157.435 200.795C151.826 200.989 146.223 198.235 140.27 191.417C138.544 189.441 138.494 187.118 138.978 185.067C139.219 184.041 139.586 183.139 139.898 182.488Z" fill="#00E5FF" fill-opacity="0.1" stroke="#6C401C" stroke-width="3"/>
<path d="M219.755 182.488C219.792 182.41 219.828 182.336 219.863 182.267C220.032 182.269 220.222 182.27 220.434 182.271C221.396 182.278 222.791 182.285 224.524 182.29C227.989 182.3 232.808 182.3 238.224 182.259C243.421 182.22 248.096 182.22 251.472 182.231C253.159 182.235 254.522 182.242 255.462 182.249C255.679 182.25 255.874 182.251 256.044 182.253C256.103 182.362 256.166 182.481 256.231 182.611C256.588 183.318 257.004 184.281 257.277 185.343C257.825 187.484 257.733 189.648 255.91 191.269C249.061 197.36 242.983 200.598 237.292 200.795C231.683 200.989 226.08 198.235 220.127 191.417C218.401 189.441 218.351 187.118 218.835 185.067C219.077 184.041 219.443 183.139 219.755 182.488Z" fill="#00E5FF" fill-opacity="0.1" stroke="#6C401C" stroke-width="3"/>
<g filter="url(#filter0_i_8_216)">
<path d="M127.372 294.508C126.78 295.908 125.694 296.742 124.113 297.007C122.535 297.264 120.689 296.874 118.575 295.839C117.405 295.266 116.392 294.633 115.535 293.942C114.678 293.25 114.018 292.626 113.557 292.069L115.066 288.495L115.452 288.685C115.599 288.94 115.769 289.228 115.964 289.547C116.17 289.862 116.483 290.248 116.901 290.705C117.26 291.105 117.687 291.508 118.184 291.916C118.683 292.317 119.249 292.672 119.881 292.981C120.708 293.386 121.36 293.593 121.836 293.603C122.315 293.605 122.633 293.421 122.79 293.05C122.929 292.72 122.912 292.425 122.739 292.165C122.57 291.898 122.186 291.536 121.588 291.078C121.307 290.853 120.915 290.567 120.409 290.223C119.917 289.875 119.477 289.533 119.092 289.199C118.034 288.291 117.359 287.358 117.067 286.4C116.778 285.433 116.848 284.442 117.276 283.428C117.827 282.124 118.882 281.334 120.439 281.057C122.008 280.776 123.83 281.144 125.905 282.161C126.889 282.642 127.785 283.208 128.593 283.856C129.413 284.501 130.027 285.064 130.436 285.546L128.988 288.976L128.625 288.798C128.188 288.05 127.626 287.341 126.937 286.674C126.26 286.002 125.512 285.466 124.693 285.065C124.014 284.732 123.4 284.547 122.851 284.511C122.308 284.479 121.963 284.64 121.813 284.994C121.677 285.317 121.678 285.614 121.818 285.886C121.957 286.158 122.381 286.57 123.091 287.121C123.481 287.42 123.904 287.734 124.358 288.063C124.825 288.388 125.28 288.737 125.724 289.111C126.707 289.951 127.327 290.824 127.586 291.728C127.848 292.624 127.777 293.55 127.372 294.508Z" fill="#955725"/>
<path d="M157.814 303.579L147.513 300.589C147.298 301.728 147.5 302.705 148.119 303.522C148.746 304.341 149.81 304.968 151.31 305.403C152.26 305.679 153.225 305.773 154.203 305.683C155.182 305.595 155.98 305.426 156.596 305.177L157.097 305.323L156.176 309C155.055 309.121 154.021 309.143 153.075 309.069C152.128 308.994 151.108 308.798 150.016 308.481C147.199 307.664 145.201 306.392 144.023 304.666C142.847 302.942 142.556 300.888 143.153 298.503C143.742 296.146 144.918 294.485 146.679 293.521C148.451 292.553 150.575 292.427 153.049 293.146C155.334 293.809 156.903 294.897 157.758 296.41C158.616 297.915 158.768 299.77 158.216 301.975L157.814 303.579ZM154.011 299.594C154.226 298.629 154.173 297.84 153.852 297.228C153.531 296.616 152.904 296.175 151.97 295.904C151.104 295.652 150.334 295.674 149.661 295.97C148.987 296.267 148.491 296.909 148.172 297.899L154.011 299.594Z" fill="#955725"/>
<path d="M188.253 315.278L183.563 314.833L184.158 307.548C184.207 306.956 184.225 306.363 184.211 305.774C184.2 305.175 184.131 304.729 184.008 304.436C183.862 304.097 183.626 303.837 183.301 303.657C182.986 303.478 182.529 303.36 181.933 303.303C181.51 303.263 181.073 303.292 180.621 303.389C180.178 303.489 179.69 303.666 179.154 303.924L178.304 314.335L173.641 313.894L174.841 299.204L179.504 299.647L179.372 301.268C180.254 300.693 181.09 300.267 181.878 299.989C182.675 299.714 183.54 299.62 184.472 299.708C186.044 299.857 187.232 300.436 188.038 301.443C188.852 302.452 189.184 303.877 189.033 305.717L188.253 315.278Z" fill="#955725"/>
<path d="M221.15 310.175C221.269 311.693 220.69 312.98 219.415 314.035C218.139 315.082 216.332 315.71 213.99 315.922C212.695 316.04 211.51 316.024 210.437 315.875C209.364 315.726 208.496 315.532 207.834 315.294L207.532 311.421L207.96 311.382C208.206 311.526 208.488 311.685 208.806 311.859C209.132 312.022 209.584 312.192 210.163 312.368C210.663 312.525 211.225 312.651 211.85 312.742C212.474 312.826 213.137 312.838 213.836 312.774C214.752 312.691 215.422 312.53 215.847 312.289C216.272 312.04 216.468 311.714 216.436 311.313C216.408 310.956 216.258 310.711 215.988 310.576C215.716 310.434 215.21 310.322 214.473 310.239C214.122 310.192 213.645 310.152 213.042 310.118C212.447 310.076 211.902 310.011 211.408 309.923C210.059 309.694 209.037 309.242 208.341 308.567C207.643 307.884 207.251 306.992 207.166 305.893C207.056 304.48 207.626 303.247 208.875 302.194C210.131 301.132 211.909 300.497 214.207 300.288C215.295 300.19 216.345 300.21 217.356 300.346C218.376 300.474 219.175 300.639 219.757 300.84L220.046 304.556L219.645 304.593C218.916 304.176 218.096 303.859 217.182 303.643C216.277 303.417 215.371 303.346 214.464 303.428C213.713 303.496 213.087 303.658 212.584 303.914C212.091 304.169 211.859 304.489 211.889 304.873C211.916 305.222 212.053 305.477 212.301 305.639C212.548 305.802 213.111 305.935 213.989 306.04C214.472 306.093 214.99 306.143 215.541 306.189C216.101 306.226 216.663 306.29 217.227 306.38C218.478 306.591 219.425 307.02 220.066 307.664C220.708 308.301 221.069 309.137 221.15 310.175Z" fill="#955725"/>
<path d="M256.7 307.583L251.73 309.003L249.497 305.537L242.587 307.511L242.242 311.713L237.398 313.098L239.61 292.164L245.144 290.584L256.7 307.583ZM247.476 302.393L243.509 296.245L242.894 303.701L247.476 302.393Z" fill="#CE7C39"/>
<path d="M284.204 296.456L274.019 301.497L272.661 298.315L275.511 296.904L270.566 285.32L267.716 286.73L266.358 283.548L276.543 278.506L277.901 281.689L275.051 283.099L279.996 294.684L282.846 293.273L284.204 296.456Z" fill="#CE7C39"/>
</g>
<defs>
<filter id="filter0_i_8_216" x="113.557" y="278.506" width="170.646" height="41.494" filterUnits="userSpaceOnUse" color-interpolation-filters="sRGB">
<feFlood flood-opacity="0" result="BackgroundImageFix"/>
<feBlend mode="normal" in="SourceGraphic" in2="BackgroundImageFix" result="shape"/>
<feColorMatrix in="SourceAlpha" type="matrix" values="0 0 0 0 0 0 0 0 0 0 0 0 0 0 0 0 0 0 127 0" result="hardAlpha"/>
<feOffset dy="4"/>
<feGaussianBlur stdDeviation="2"/>
<feComposite in2="hardAlpha" operator="arithmetic" k2="-1" k3="1"/>
<feColorMatrix type="matrix" values="0 0 0 0 0 0 0 0 0 0 0 0 0 0 0 0 0 0 0.25 0"/>
<feBlend mode="normal" in2="shape" result="effect1_innerShadow_8_216"/>
</filter>
</defs>
</svg>
